<?xml version="1.0" encoding="utf-8"?>
<!-- Generator: Adobe Illustrator 19.1.0, SVG Export Plug-In . SVG Version: 6.00 Build 0)  -->
<!DOCTYPE svg PUBLIC "-//W3C//DTD SVG 1.1//EN" "http://www.w3.org/Graphics/SVG/1.1/DTD/svg11.dtd">
<svg version="1.1" id="Warstwa_1" xmlns="http://www.w3.org/2000/svg" xmlns:xlink="http://www.w3.org/1999/xlink" x="0px" y="0px"
	 viewBox="0 0 823.6 626.2" enable-background="new 0 0 823.6 626.2" xml:space="preserve">
<g>
	<g>
		<polyline fill="#FFFFFF" points="209,312.6 306.1,510.3 120.8,600.1 0,354.4 141.6,285.7 		"/>
		<polygon fill="#B1B1B1" points="141.6,285.7 209,312.6 165.2,333.8 		"/>
	</g>
	
		<line fill="none" stroke="#B1B1B1" stroke-width="3.6207" stroke-linecap="round" stroke-linejoin="round" stroke-miterlimit="10" x1="64.2" y1="432.8" x2="204.5" y2="364.8"/>
	
		<line fill="none" stroke="#B1B1B1" stroke-width="3.6207" stroke-linecap="round" stroke-linejoin="round" stroke-miterlimit="10" x1="74.2" y1="453.3" x2="214.6" y2="385.3"/>
	
		<line fill="none" stroke="#B1B1B1" stroke-width="3.6207" stroke-linecap="round" stroke-linejoin="round" stroke-miterlimit="10" x1="84.3" y1="473.7" x2="224.6" y2="405.7"/>
	
		<line fill="none" stroke="#B1B1B1" stroke-width="3.6207" stroke-linecap="round" stroke-linejoin="round" stroke-miterlimit="10" x1="94.4" y1="494.2" x2="234.7" y2="426.2"/>
	
		<line fill="none" stroke="#B1B1B1" stroke-width="3.6207" stroke-linecap="round" stroke-linejoin="round" stroke-miterlimit="10" x1="104.4" y1="514.6" x2="244.7" y2="446.6"/>
	
		<line fill="none" stroke="#B1B1B1" stroke-width="3.6207" stroke-linecap="round" stroke-linejoin="round" stroke-miterlimit="10" x1="114.5" y1="535.1" x2="254.8" y2="467.1"/>
	
		<polygon fill="#B1B1B1" stroke="#B1B1B1" stroke-width="3.6207" stroke-linecap="round" stroke-linejoin="round" stroke-miterlimit="10" points="
		123,365.5 50.7,400.6 34.1,366.7 106.4,331.6 	"/>
</g>
<g>
	<path fill="#E2E2E2" d="M358.4,470.9c-4,11.5-9.6,14.2-21.1,10.2l-62.5-21.7c-11.5-4-14.2-9.6-10.2-21.1l50.7-145.8
		c4-11.5,9.6-14.2,21.1-10.2l62.5,21.7c11.5,4,14.2,9.6,10.2,21.1L358.4,470.9z"/>
	<g>
		<path d="M375.4,302.6c-0.2,0.7-1.2,0.9-2.1,0.6l-15.3-5.3c-1-0.3-1.5-1.1-1.3-1.8l0,0c0.2-0.7,1.2-0.9,2.1-0.6l15.3,5.3
			C375.1,301.1,375.6,301.9,375.4,302.6L375.4,302.6z"/>
		<circle cx="377.9" cy="303.5" r="1.4"/>
		<circle cx="381.4" cy="304.7" r="1.4"/>
		<path d="M395.4,310.2c-0.3,1-1.4,1.5-2.4,1.1c-1-0.3-1.5-1.4-1.1-2.4c0.3-1,1.4-1.5,2.4-1.1S395.8,309.3,395.4,310.2z"/>
	</g>
	<path fill="none" stroke="#A5A5A5" stroke-miterlimit="10" d="M318.6,465.2c-0.6,1.8-2.2,2.8-3.5,2.4l-14.1-4.9
		c-1.3-0.5-1.9-2.3-1.3-4l0.8-2.3c0.6-1.8,2.2-2.8,3.5-2.4l14.1,4.9c1.3,0.5,1.9,2.3,1.3,4L318.6,465.2z"/>
	
		<rect x="292.3" y="305.9" transform="matrix(-0.9444 -0.3287 0.3287 -0.9444 530.2629 851.0908)" fill="#FFFFFF" width="89.6" height="149.7"/>
	
		<rect x="315.6" y="309.8" transform="matrix(-0.9444 -0.3287 0.3287 -0.9444 597.502 728.1831)" opacity="0.5" fill="#202121" enable-background="new    " width="89.5" height="7.5"/>
	<path fill="#FFFFFF" d="M391.9,324.4c-0.3,1-1.4,1.5-2.4,1.2s-1.5-1.4-1.2-2.4s1.4-1.5,2.4-1.2
		C391.7,322.3,392.3,323.4,391.9,324.4z"/>
	<path fill="#FFFFFF" d="M400.1,327.2c-0.3,1-1.4,1.5-2.4,1.2s-1.5-1.4-1.2-2.4s1.4-1.5,2.4-1.2C400,325.1,400.5,326.2,400.1,327.2z
		"/>
	<g>
		<path fill="#6CC077" d="M294.7,366.1l84.6,29.4l5.3-15.2l-4.3-8.4c0,0-2.1-5.8-5.5-6.8c-3.1-0.9-7.9,1.5-8.9,2l-2.9-5.6
			c0,0-2.4-6.8-6.5-7.9c-4.1-1.2-10.6,2.5-10.6,2.5l-1.7,0.8l-5.4-10.5c0,0-3-8.3-8-9.7c-5-1.4-13.1,3-13.1,3l-16.3,7.4L294.7,366.1
			z"/>
		<path fill="#DBF0F5" d="M330.7,336.8c5,1.4,8,9.7,8,9.7l5.4,10.5l1.7-0.8c0,0,6.6-3.6,10.6-2.5c4.1,1.2,6.5,7.9,6.5,7.9l2.9,5.6
			c0.9-0.5,5.8-2.9,8.9-2c3.5,1,5.5,6.8,5.5,6.8l4.3,8.4l11.8-33.9c0-0.1,0-0.3-0.2-0.3L312,316.9c-0.1,0-0.3,0-0.3,0.2l-10.5,30.2
			l16.3-7.4C317.7,339.8,325.8,335.3,330.7,336.8z"/>
	</g>
	
		<rect x="311.8" y="316.8" transform="matrix(-0.9444 -0.3287 0.3287 -0.9444 586.8731 747.8175)" fill="#9FD7FF" width="89.6" height="15.1"/>
	<g>
		<polygon fill="#FFFFFF" points="297.1,365.5 297.6,366.9 298.2,368.2 296.3,367.6 294.5,366.9 295.8,366.2 		"/>
		<polygon fill="#FFFFFF" points="300.9,366.8 301.5,368.2 302.1,369.6 300.2,368.9 298.3,368.3 299.6,367.5 		"/>
		<polygon fill="#FFFFFF" points="304.8,368.2 305.3,369.5 305.9,370.9 304,370.2 302.2,369.6 303.5,368.9 		"/>
		<polygon fill="#FFFFFF" points="308.6,369.5 309.2,370.9 309.7,372.2 307.9,371.6 306,370.9 307.3,370.2 		"/>
		<polygon fill="#FFFFFF" points="312.4,370.8 313,372.2 313.6,373.6 311.7,372.9 309.8,372.3 311.1,371.6 		"/>
		<polygon fill="#FFFFFF" points="316.3,372.2 316.9,373.5 317.4,374.9 315.6,374.3 313.7,373.6 315,372.9 		"/>
		<polygon fill="#FFFFFF" points="320.1,373.5 320.7,374.9 321.3,376.3 319.4,375.6 317.5,374.9 318.8,374.2 		"/>
		<polygon fill="#FFFFFF" points="324,374.9 324.6,376.2 325.1,377.6 323.3,376.9 321.4,376.3 322.7,375.6 		"/>
		<polygon fill="#FFFFFF" points="327.8,376.2 328.4,377.6 329,378.9 327.1,378.3 325.2,377.6 326.5,376.9 		"/>
		<polygon fill="#FFFFFF" points="331.7,377.5 332.3,378.9 332.8,380.3 331,379.6 329.1,379 330.4,378.3 		"/>
		<polygon fill="#FFFFFF" points="335.5,378.9 336.1,380.2 336.7,381.6 334.8,381 332.9,380.3 334.2,379.6 		"/>
		<polygon fill="#FFFFFF" points="339.4,380.2 340,381.6 340.5,382.9 338.7,382.3 336.8,381.6 338.1,380.9 		"/>
		<polygon fill="#FFFFFF" points="343.2,381.6 343.8,382.9 344.4,384.3 342.5,383.6 340.6,383 341.9,382.3 		"/>
		<polygon fill="#FFFFFF" points="347.1,382.9 347.7,384.3 348.2,385.6 346.4,385 344.5,384.3 345.8,383.6 		"/>
		<polygon fill="#FFFFFF" points="350.9,384.2 351.5,385.6 352.1,387 350.2,386.3 348.3,385.7 349.6,384.9 		"/>
		<polygon fill="#FFFFFF" points="354.8,385.6 355.3,386.9 355.9,388.3 354,387.7 352.2,387 353.5,386.3 		"/>
		<polygon fill="#FFFFFF" points="358.6,386.9 359.2,388.3 359.8,389.6 357.9,389 356,388.3 357.3,387.6 		"/>
		<polygon fill="#FFFFFF" points="362.5,388.3 363,389.6 363.6,391 361.7,390.3 359.9,389.7 361.2,389 		"/>
		<polygon fill="#FFFFFF" points="366.3,389.6 366.9,391 367.5,392.3 365.6,391.7 363.7,391 365,390.3 		"/>
		<polygon fill="#FFFFFF" points="370.2,390.9 370.7,392.3 371.3,393.7 369.4,393 367.6,392.4 368.9,391.6 		"/>
		<polygon fill="#FFFFFF" points="374,392.3 374.6,393.6 375.2,395 373.3,394.3 371.4,393.7 372.7,393 		"/>
		<polygon fill="#FFFFFF" points="377.9,393.6 378.4,395 379,396.3 377.1,395.7 375.3,395 376.6,394.3 		"/>
	</g>
	<g>
		<path fill="#9FD7FF" d="M300.3,378.1c-2-0.7-4.1,0.4-4.8,2.3s0.4,4.1,2.3,4.8s4.1-0.4,4.8-2.3
			C303.3,380.9,302.3,378.7,300.3,378.1z M299.4,383.5l-0.6-1.2l-1.2-0.4l0.5-1.3l1.2,0.4l1.2-0.6L299.4,383.5z M300.1,383.1
			l-0.2-0.2c0.3-0.2,0.5-0.4,0.6-0.8c0.1-0.3,0.1-0.7,0-1l0.3-0.1c0.1,0.4,0.1,0.8,0,1.1C300.7,382.6,300.4,382.9,300.1,383.1z
			 M300.4,383.6c0.4-0.3,0.7-0.7,0.9-1.2c0.2-0.5,0.2-1,0-1.5l0.3-0.1c0.2,0.5,0.2,1.1,0,1.7s-0.6,1-1,1.3L300.4,383.6z
			 M300.9,384.3c0.6-0.4,1-0.9,1.2-1.6s0.2-1.4,0-2l0.3-0.1c0.2,0.7,0.2,1.5,0,2.2c-0.3,0.7-0.7,1.3-1.3,1.8L300.9,384.3z"/>
	</g>
	
		<line opacity="0.5" fill="none" stroke="#606060" stroke-width="2.8346" stroke-miterlimit="10" enable-background="new    " x1="308.1" y1="382.1" x2="362.1" y2="400.9"/>
	
		<line opacity="0.5" fill="none" stroke="#606060" stroke-width="2.8346" stroke-miterlimit="10" enable-background="new    " x1="305.5" y1="389.3" x2="359.6" y2="408.1"/>
	
		<line opacity="0.5" fill="none" stroke="#606060" stroke-width="2.8346" stroke-miterlimit="10" enable-background="new    " x1="303" y1="396.5" x2="357.1" y2="415.3"/>
	
		<line opacity="0.5" fill="none" stroke="#606060" stroke-width="2.8346" stroke-miterlimit="10" enable-background="new    " x1="300.5" y1="403.9" x2="330.7" y2="414.4"/>
	<path fill="#F67480" d="M342.6,451.5l-50.5-17.6c-1-0.4-1.6-1.5-1.2-2.5l3.1-9c0.4-1,1.5-1.6,2.5-1.2l50.5,17.6
		c1,0.4,1.6,1.5,1.2,2.5l-3.1,9C344.8,451.4,343.6,451.9,342.6,451.5z"/>
</g>
<g>
	<g>
		
			<rect x="289.6" y="473.4" transform="matrix(-0.3594 0.9332 -0.9332 -0.3594 887.8824 416.5498)" fill="#F67480" width="22.8" height="79.3"/>
		
			<rect x="312.4" y="519.7" transform="matrix(-0.3594 0.9332 -0.9332 -0.3594 927.0968 407.0752)" fill="#FCC775" width="22.8" height="4.1"/>
		<polygon fill="#FCC775" points="259.8,509.3 268,488.1 254.5,491 251.8,498.1 		"/>
		<polygon fill="#1C1C1B" points="251.8,498.1 254.5,491 247.8,492.5 		"/>
	</g>
	<g opacity="0.28">
		
			<rect x="324.1" y="523.5" transform="matrix(-0.3594 0.9332 -0.9332 -0.3594 943.014 412.8219)" fill="#FF4234" width="11.4" height="13.1"/>
		
			<rect x="259.8" y="509.4" transform="matrix(0.9332 0.3594 -0.3594 0.9332 204.5635 -70.1295)" fill="#FF4234" width="62.1" height="11.4"/>
		
			<rect x="316.1" y="524.9" transform="matrix(-0.3594 0.9332 -0.9332 -0.3594 929.1785 416.0567)" fill="#FFEF9D" width="11.4" height="4.1"/>
		<polygon fill="#FFEF9D" points="263.9,498.7 259.8,509.3 251.8,498.1 253.2,494.5 		"/>
		<polygon fill="#1C1C1B" points="251.8,498.1 247.8,492.5 253.2,494.5 		"/>
	</g>
</g>
<g>
	<path fill="#FFFFFF" d="M588.5,80.6c-0.4,8.9,1.4,19.4,7.8,26.2c3.2,3.4,6,7.2,10.2,9.5c2.5,1.4,4.1,2.3,4,5.5
		c0,1.6-0.3,3.2-0.6,4.8c-0.2,0.1-0.4,0.4-0.4,0.8v0.1c-0.5,0.1-0.9,0.5-0.8,1.2c0.1,0.6,1.6,2.7,1.3,3c-0.7,0.6-1.1,1.4-1.1,2.3
		c0,1.1,1.4,2.4,2.1,2.9c-0.9-0.6-1.7,0-1.8,1.1c0,1.1,0.7,1.6,1.6,2c2.3,1,2.4,4.5,4.1,6.1c2.9,2.8,5.8,4.9,10.1,4.6
		c3.5-0.2,6.2-1.2,8.3-4c1-1.3,5.8-3.8,3.9-6.3c-0.5-0.6,1.3-2.4,1.4-3.5c0-1-0.3-2.6-1.1-3.3c-0.9-0.8,1.3-1.8,1.6-2.7
		c0.2-0.7,0-1.6-0.1-2.3l0.1-0.1c0.4-0.4,0.3-0.9,0.1-1.2c0.1-3.7-0.1-6.8,2.5-9.6c3.6-3.8,6.7-7.8,9.5-12.2c2.1-3.2,5.9-7.9,6-11.9
		c0.1-4.5,1.2-8.8,0.9-13.3c-0.5-9.1-3.7-20.4-10.5-26.9c-7.3-7.1-15.1-9.1-25.1-9.6C601.5,42.7,589.2,61.2,588.5,80.6 M612,132.5
		c0.3,0.2,0.6,0.5,1,0.7c2,0.9,4.1,1.8,6.2,2.1c2.8,0.4,10.2,1.4,12.5-0.8c0.9-0.9-0.4-2.3-1.3-1.4c-1.6,1.5-10,0.6-11.8,0.1
		c-1.9-0.6-4.5-1.2-6-2.6c-0.6-0.5-1-1.2-1.4-1.8c2.3,0.5,4.5,1.6,6.9,1.6c2.4,0.1,4.8,0.2,7.2,0.2c2.1,0,4.2-0.2,6.3-0.3
		c1.5-0.1,3.7-0.2,5.5-0.9c-0.1,1.1-0.7,1.3-1.5,2.4c-1.3,1.9,1.9,4.6,0.7,5.6c-0.1,0.1-0.2,0.2-0.3,0.3c-0.3-0.1-0.6-0.1-0.9,0.2
		c-2,2.2-7.2,1.5-10,1.6c-0.8,0-7.9,0.2-8-0.3c-0.3-1.2-2.2-0.7-1.9,0.5c0.7,2.7,7.9,1.8,9.9,1.8c2.7,0,7.1,0.4,9.8-1
		c0.1,0.2,0.2,0.4,0.4,0.7c0.4,0.5-2.2,2.1-2.4,2.4c-1.4,2-2.2,3.9-4.8,4.6c-6.5,1.9-12-1.7-14-8.1c-0.3-0.9-0.9-1.2-1.8-1.6
		c-1.4-0.7-0.3-0.9,0.2-1.6C613.9,134.9,609.2,134.9,612,132.5 M639.6,82.7c-0.8,2-1.1,4.6-1.8,6.6c-1.4,4.3-2.6,8.7-3.4,13.1
		c-1.7,8.9-2.4,17.9-5.1,26.6l0,0c-1.6,0.2-3.5,0.1-5.3-0.1c0.1-0.4,0-0.8-0.3-1c-0.2-8.3-1.1-16.2-3.2-24.2c-1-4-2.6-7.7-3.9-11.5
		c-1-3.1-2.8-6-3.8-9c0.2-0.1,0.3-0.1,0.5-0.2c0.6-0.4,1-0.9,1.2-1.5c0.6,0.6,1.6,0.7,2.6,0.5c0.4-0.1,0.6-0.3,0.9-0.6
		c0.7,0.9,1.7,1.4,3.2,1.6c0.9,0.1,1.6-0.4,2.2-1.3c0.5,0.7,1.2,1.2,2.3,1.2c0.8,0,1.5-0.3,2-1c0.3,0.4,0.7,0.8,1.3,0.9
		c1.9,0.4,3.3-0.5,4.4-1.8c0.3,1.4,0.8,2.6,2,2.6c1.4,0,2.3-0.6,2.9-1.6C638.7,82.2,639.1,82.5,639.6,82.7 M591.3,92.4
		c-5.1-20.7,7.1-48.2,31.3-46.7c11.2,0.7,21.2,3.3,27.2,13.8c2.6,4.6,4.9,9.5,5.9,14.8c0.9,4.6,1.7,11.6,0.2,16.1
		c-1.3,3.9-1.7,8.1-4.4,11.5c-3,3.9-5.4,8.9-9,12.3c-4.4,4.2-5,6.5-5.2,12.2c0,0.1-0.1,0.1-0.1,0.2c-0.1,0.3-0.2,0.7-0.2,1
		c-1.5,0.7-3.8,0.5-5.5,0.9l0,0c2.4-8.3,3.1-17,4.8-25.5c0.9-4.5,2-8.8,3.4-13.1c0.6-2,0.9-5.1,1.9-7c1.6-0.1,3.1-0.8,3.4-2.5
		c0.4-0.9,0.6-2,0.6-2.9c0-1-0.6-2.5-1.7-2.7c-0.5-0.1-1,0-1.5,0.2c-0.3-0.1-0.6-0.2-0.9-0.2c-0.4,0-0.6,0.1-0.8,0.4
		c-1.3,0.2-2.5,1-3,2c-0.2,0.1-0.3,0.4-0.3,0.7c0,0.1,0,0.1,0,0.2c-0.1,0.2-0.1,0.4-0.1,0.6c-0.5,1.7-2.1,3.8-2.1,0.4
		c0-0.8,0-1.7,0-2.5c0-1.3-1.8-1.3-1.9-0.1c-0.6,4.7-3.1,4-3.9,2.1c0.4-1.4,0.6-2.8,0.5-3.6c0-1-1.2-1.3-1.8-0.5
		c-0.6,0.8-1,2.8-1,4.6c-0.1,0.2-0.2,0.4-0.3,0.6c-1-0.4-1.6-0.8-2-1.4c0.3-1.3,0.4-2.5,0.4-3.2c0-1.1-1.6-1.4-1.9-0.3
		c-0.3,1-0.6,2.4-0.6,3.7c-0.2,0.7-0.5,1.3-0.8,1.8c-1.7-0.8-2.8-1.9-3.2-3.2c0-1-0.1-1.9-0.1-2.2c0-1.2-1.9-1.3-1.9-0.1l-0.1,3.1
		c0.1,0.8-0.1,1.5-0.7,2.1c0-0.7-0.7-1-1.2-0.9c-0.3-1.4-0.9-2.8-1.6-3.6c-0.2-0.2-0.4-0.4-0.6-0.6c-0.4-0.7-0.8-1.2-1.3-1.6
		c-1-0.8-2.7-0.1-3.3,0.9c-0.2,0.3-0.3,0.6-0.4,0.9c-0.4,0.4-0.9,0.9-1.2,1.5c-0.9,1.5-1.2,3.2-0.1,4.8c0.8,1.1,2.3,2.1,3.7,2.1
		c0.4,0,0.7,0,1-0.1l0,0c2,7.1,6.2,13.5,7.8,20.8c1.9,8.3,3,16.2,3.2,24.6c-0.1,0-0.1,0-0.2,0c-3.5-0.1-6.6-1-9.9-1.7
		c0.5-2.5,1.2-5.5,0.7-7.8c-0.6-2.5-2.9-3.3-5-4.5C599.7,110.1,593.4,101.1,591.3,92.4 M609.1,76.2c-0.1,1.2,1.8,1.3,1.9,0.1
		c0.4,0.9,1.1,2.8,0.5,3.3c-0.5,0.4-0.3,1,0,1.3c-0.2,0.2-0.5,0.3-0.8,0.4c-1.7-0.4-2.8-2-2.2-3.9C608.6,77.1,608.8,76.6,609.1,76.2
		c-0.1-0.1,0-0.1,0-0.2C609.1,76.1,609.1,76.1,609.1,76.2 M641.5,78.3c0.1-0.1,0.4-0.6,0.7-1c0.4,0.5,0.6,1.3,0.7,1.7
		c0.1,0.2,0.1,0.4,0.1,0.6c0,0.1,0,0.1,0,0.2C641.9,81.2,640.7,79.5,641.5,78.3"/>
	<path fill="#FFFFFF" d="M665.4,75.5c1.3-0.9,2.5-1.3,4-1.7c2.7-0.7,5.1-2.1,7.5-3.6c2.3-1.4,4.6-2.2,6.6-3.9c1-0.8,2.2-0.9,3.4-1
		c1.2-0.1,1.2,1.9-0.1,1.9c-1.7,0.1-3.4,1.5-4.7,2.5c-1.7,1.2-3.7,1.8-5.4,2.9c-2.9,1.7-6.7,2.3-9.5,4c-0.1,0.4-0.4,0.7-0.9,0.7
		h-0.5C664.8,77.2,664.7,76,665.4,75.5"/>
	<path fill="#FFFFFF" d="M661,49.1c2-3.4,6.8-5.6,10-7.7c3.7-2.3,6.9-5.9,11.5-6.2c0.5,0,0.9,0.5,0.9,1v0.5c0,1-1.2,1.1-1.7,0.6
		c-3.3,0.6-6.1,3.3-8.7,5.1c-1.8,1.3-3.7,2.4-5.5,3.7c-1.1,0.8-2.6,1.7-3.7,2.7c0,0.1-0.1,0.3-0.2,0.4c-0.5,0.7-0.7,0.9-1.3,1.3
		C661.4,51,660.5,49.9,661,49.1"/>
	<path fill="#FFFFFF" d="M642,37c0.1-0.2,0.3-0.3,0.5-0.4c2.6-4.7,5.9-8.8,9.1-13.1c2-2.7,5-7,8.5-7.7c1.2-0.2,1.7,1.6,0.5,1.9
		c-3.8,0.8-6.8,6.5-9,9.2c-3.2,3.8-6.2,8.1-8.4,12.6c-0.4,0.8-1.9,0.4-1.8-0.5C641.5,38,641.5,37.8,642,37"/>
	<path fill="#FFFFFF" d="M622.8,16.6c1.1-5.6,2.5-11.5,5.7-16.2c0.7-1,2.4,0,1.6,1c-2.8,4.1-4.2,9.3-5.1,14.1
		c-1,5.1-2,10.4-2.7,15.6c1.1,0.2,1,1.9-0.2,1.9h-1c-0.5,0-1-0.5-0.9-1C621,26.9,621.8,21.7,622.8,16.6"/>
	<path fill="#FFFFFF" d="M596.8,6.8c-0.1,4.8,0,9.3,1,14c0.6,2.5,3,13.8,5.4,14.2c1.2,0.2,1.2,2.1-0.1,1.9c-4.1-0.6-4.4-6.6-5.4-9.7
		c-2.1-7.1-3.1-13.1-2.9-20.4C595,5.5,596.9,5.5,596.8,6.8"/>
	<path fill="#FFFFFF" d="M560.5,29.2c0.3,1.2,3.9,2.5,4.7,3c2.2,1.3,4.3,3.1,6.3,4.7c4.9,3.9,9.6,7.8,16.1,8.3
		c1.2,0.1,1.2,2-0.1,1.9c-6.8-0.6-11.9-4.5-17.1-8.6c-3-2.4-6.1-5-9.6-6.5c-1.3-0.5-1.9-1-2.2-2.4C558.3,28.4,560.1,28,560.5,29.2"
		/>
	<path fill="#FFFFFF" d="M553,55.3c9.5,0.6,18,5.9,27.3,7c1.2,0.2,1.2,2.1-0.1,1.9c-9.3-1.2-17.8-6.4-27.3-7
		C551.7,57.1,551.8,55.2,553,55.3"/>
	<path fill="#FFFFFF" d="M550.2,98.5c7.8-7,19.4-12.3,30-12.5c1.2,0,1.2,1.9-0.1,1.9c-10,0.2-21.3,5.3-28.6,12
		C550.6,100.7,549.2,99.3,550.2,98.5"/>
	<path fill="#FFFFFF" d="M665.3,97.2c3.7,2.8,7.8,3.6,12,5.4c4.4,1.9,8.4,4.7,13.1,5.8c1.1,0.3,0.8,1.9-0.3,1.9h-0.5
		c-0.3,0-0.5-0.1-0.6-0.3c-4.8-1.3-8.9-4.2-13.5-6.1c-4-1.7-7.6-2.4-11.2-5.1C663.3,98.1,664.3,96.4,665.3,97.2"/>
</g>
<path fill="#FFFFFF" d="M379.6,120.4c-8.5,5.5-17.1,13.7-22.4,22.9c-0.2,0-0.3,0-0.4,0.1c-1,0.8-1.7,2.1-2.3,3.5
	c-0.7,0.1-1.4,0.5-1.4,1.5c0,0.7,0,1.5,0,2.2c-0.1,0.4-0.3,0.9-0.4,1.3c-1.2,3.3-2,6.8-1.7,10.4c0,0.2,0.1,0.3,0.2,0.4
	c-0.5,2.6-0.5,5.2,0,8c0.8,4,1.9,4.9,5.5,6.4c0.1,0.1,0.3,0.1,0.4,0c0.1,0.1,0.2,0.3,0.3,0.4c2,2.6,8,3.4,11,4.1
	c2.8,0.7,5.5,1.5,8.2,2.3c0.1,0,0.1,0,0.2,0c2.3,0.7,4.7,1.3,7.2,1.6c1.5,0.2,2.1-0.4,2.4-1.3c0.3-0.1,0.5-0.4,0.5-0.7
	c2.8-1,4.4-3.9,5.5-6.8c0.5,0.1,1.1-0.3,1-0.8c0-0.4-0.1-0.9-0.2-1.3c0.3-0.8,0.6-1.6,0.9-2.3c1.5-3.8,4-7.2,6.7-10.3
	c2.7-3,6.9-5,10.3-7.2c0.8-0.5,1.6-1,2.5-1.4c1.2-0.4,2.5-0.9,3.7-1.5c2.5-0.4,5-0.7,7.3-1.1c2.7-0.5,6.2-0.9,9.4-0.7
	c1.6,0.5,3.2,1,4.8,1.3c0.1,0.1,0.2,0.2,0.4,0.2c4.6,0.5,10.2,3.6,13.9,6.3c0.6,0.5,1.3,1.2,2,1.8c-1.9,1.1-3.8,2.3-5.8,3.4
	c-0.2,0.1-0.3,0.3-0.5,0.4c-1.2,0.5-2.4,1-3.7,1.3c-2.3,0.5-4.5,1.3-5.8,3.2c-0.9,0.3-1.5,1.6-0.7,2.5c0.1,0.2,0.3,0.3,0.5,0.4
	c1,2.1-1.1,4-1,6.1c0,2,1.3,2.7,2.9,3.6c3.1,1.8,6,3.8,9.1,5.6c3.2,1.9,5.9,4.4,9.3,5.9c3.1,1.4,6.4,2.4,9.6,3.4
	c2,0.7,4.3,3,6.5,2.8c1.8-0.2,4.1-3.5,3.4-5.4c3.5-5.9,6.6-12,9.4-18.3c0.4-0.7,0.7-1.4,1-2.2c1.6-3.3,3.1-6.7,4.7-10
	c0.3-0.6,0.1-1.1-0.2-1.5c0.4-1.2,0.9-2.4,1.3-3.6c0.1-0.2,0.1-0.4,0.1-0.6c0.3-1,0.7-2,1-2.9c0.2-0.8-0.1-1.3-0.7-1.6
	c0.5-1.5,0.7-3.1,0.6-4.7c0-0.3-0.2-0.5-0.5-0.6c-0.1,0-0.3-0.1-0.4-0.1c-0.1-0.2-0.2-0.5-0.4-0.6c-1.7-0.9-3.8-0.2-5.6,0.8
	c-0.3,0.1-0.7,0.1-1,0.2c-2.4,0.3-4.8,0.8-6.5,2.7v0.1c-5,1.6-9.6,4.4-14.2,6.9c-2-5.7-9.2-9.1-15.3-11.5c-2.1-1.7-4.4-2.9-7.2-3.8
	c-9.3-2.8-19.9-1.9-29,0.7c-15.5,4.4-27.6,15.1-32.4,30.5c-8.7-4.5-20-2.8-26.9-10.9c0-0.1-0.1-0.1-0.1-0.1c-0.1-3,0-6.1,0.1-9.2
	c2.7-9.6,11.3-18.4,18.1-24.5c5.7-5.2,12.8-9,19.7-12.4c7.8-3.8,16.1-6.5,24.6-8.2c13.3-2.6,26.7-0.4,36.9,8.9
	c9.3,8.4,13.8,21,14.9,33.2c0.2,1.9,3.1,1.8,3-0.1c-1.1-12.3-5.3-24.2-13.8-33.3c-8.4-9-20.4-13.2-32.5-12.8
	C410.2,104.1,393.4,111.5,379.6,120.4 M453.9,153c-0.7-0.3-1.4-0.7-2.1-1.1c0.1-0.3,0-0.5-0.3-0.8c-0.5-0.4-1-0.8-1.5-1.1
	c0,0,0,0,0-0.1c1,0.5,1.9,1,2.9,1.5c0.5,0.3,1,0.5,1.5,0.8s0.9,0.7,1.3,1.1s0.8,0.8,1.2,1.3C456,154.1,454.9,153.6,453.9,153
	 M441.2,179.4c-2.9-1.7-1.2-4.1-0.8-6.4c0.4,0.3,0.8,0.6,1.3,0.8c-0.3,0.6-0.3,1.2-0.4,1.8c0,0.7,0,1.5-0.5,2
	c-0.7,0.8,0.6,1.8,1.2,1c1-1.2,0.5-2.8,1.1-4.1c0.5,0.2,0.9,0.5,1.4,0.8l0,0c-0.2,0.1-0.3,0.3-0.3,0.5c-0.2,1.4-0.3,2.9-0.9,4.3
	c-0.1,0.2-0.1,0.4,0,0.5C442.6,180.2,441.9,179.8,441.2,179.4 M448.1,183.5c0.9-1.2,1.4-2.9,1.5-4.5c0.1-1-1.5-1.3-1.6-0.3
	c-0.1,1.3-0.4,2.7-1.2,3.8c0,0.1-0.1,0.1-0.1,0.2c-0.9-0.5-1.7-1-2.6-1.5c0.2,0,0.4-0.2,0.5-0.4c0.6-1.5,0.7-3.1,1-4.7
	c0,0,0,0,0-0.1c2.5,1.4,4.9,2.8,7.5,3.8l0,0c0.5,0.6-0.4,2.3-0.7,3c-0.4,0.9-0.7,1.9-0.9,2.9C450.5,185,449.3,184.2,448.1,183.5
	 M451,177.2c1,0.3,1.9,0.6,2.9,0.9c0.9,0.3,1.8,0.7,2.6,1.2C454.6,178.6,452.8,178,451,177.2 M453.1,186.7c0.2-1.5,0.8-3,1.3-4.4
	c0.2-0.5,0.4-1.1,0.5-1.7c0.1,0,0.1,0.1,0.2,0.1c1.4,0.5,2.8,1,4.1,1.6c-0.5,2.4-0.9,5.1-2.2,7.2
	C455.7,188.5,454.4,187.6,453.1,186.7 M459.7,190.8c-0.4-0.2-0.9-0.4-1.3-0.6c1.3-2.2,1.8-4.8,2.3-7.3c0.9,0.4,1.9,0.9,2.8,1.4
	c0.6,0.4,1.3,0.9,1.9,1.2c-0.2,0.1-0.4,0.3-0.5,0.6c-0.3,1.1-0.6,2.1-0.9,3.2c-0.3,1-0.4,2-0.7,2.9
	C462.1,191.7,460.9,191.3,459.7,190.8 M465.4,192.9c-0.2-0.1-0.4-0.2-0.6-0.2c0.2-0.8,0.4-1.5,0.6-2.3c0.3-1.4,0.8-2.7,1.1-4.1
	c0-0.1,0-0.1,0-0.2c0.5,0.3,1,0.6,1.6,0.9c0.5,0.4,1,0.8,1.5,1.3c-0.2,1.9-1,3.8-0.8,5.8C467.6,193.7,466.5,193.3,465.4,192.9
	 M470.2,194.6c0-0.1,0.1-0.2,0.1-0.4c-0.2-1.6,0.3-3.1,0.6-4.7c0.7,0.7,1.4,1.5,2.1,2.2c-0.6,1.2-0.8,2.5-1,3.8
	C471.5,195.2,470.9,194.9,470.2,194.6 M475.3,193.7c0.2,0.6,0.8,0.9,1.5,0.9c-0.2,0.5-0.4,1-0.9,1.4c-0.7,0.9-1.6,0.8-2.4,0.4
	c0.2-1.2,0.4-2.4,0.8-3.5C474.6,193.2,474.9,193.5,475.3,193.7 M475.7,191.6c0,0.1-0.1,0.2-0.1,0.3c-1-0.9-2-2-2.9-3c0,0,0,0,0.1,0
	c0.1,0.1,0.1,0.2,0.2,0.3C474,189.8,475,190.6,475.7,191.6 M486.7,151.6c0.3-0.2,0.4-0.4,0.5-0.7c0.3-0.1,0.7-0.2,1-0.3
	c2-0.7,3.9-1.1,5.6-2.4c0.1,0,0.2,0.1,0.2,0.1c0.1,1.5-0.3,3.2-1,4.6c0,0,0,0,0,0.1c-0.1,0.1-0.1,0.2-0.2,0.3
	c-0.6,1.5-1.2,3.1-1.8,4.6c-1.1,1.9-1.9,3.9-2.7,6c-0.3,0.7-0.5,1.5-0.7,2.2c-2.1,4.3-4.3,8.6-6.5,12.9c-2.2,3.1-4.1,6.4-4.9,10.3
	c0,0.2,0,0.4,0,0.5c-0.6-0.7-1.3-1.2-2.1-1.8c0.3-0.8,0.1-1.8-0.9-2.1c-6.6-2.1-11-7.5-17.1-10.2c-4.2-1.8-9.2-2.4-13.1-4.8h0.1
	c3.8-0.8,7.4-2.4,11-4c1.8-0.8,3.6-1.7,5.4-2.5c1.9-0.9,4.3-1.5,6.1-2.6C472.3,157.6,480.1,155.7,486.7,151.6 M456.2,158.2
	c0.1,0.2,0.2,0.5,0.4,0.7c-0.1,0.1-0.3,0.1-0.4,0.2c-0.4-0.4-0.7-0.8-1-1.1c-0.3-0.3-0.6-0.6-0.9-0.8
	C454.9,157.6,455.6,157.9,456.2,158.2 M456.4,149.6c2.1,1.1,3.9,2.9,5.5,4.8c-2.4-1.2-4.3-3.2-6.2-5.1
	C455.9,149.4,456.2,149.5,456.4,149.6 M434.1,143L434.1,143c-2.9,0.3-5.8,0.5-8.6,0.3C428.3,143,431.2,142.9,434.1,143 M420.8,145.2
	c-0.1-0.2-0.4-0.4-0.7-0.4l-2.8,0.3c-0.3,0-0.5,0.2-0.6,0.3c-0.5,0.1-1.1,0.1-1.6,0.2c0.9-0.3,1.7-0.5,2.6-0.8
	c2.3-0.6,4.7-1.1,7.1-1.4c-0.3,0.1-0.5,0.5-0.5,0.8c-0.1,0-0.2,0-0.2,0c-0.4,0-0.6,0.3-0.7,0.7c-0.7,0-1.4,0.1-2.1,0.3
	C421.2,145.2,421,145.2,420.8,145.2 M449.8,147.9c-0.1,0-0.2,0-0.3,0.1c-0.9-0.4-1.9-0.9-2.9-1.2c-0.8-0.3-1.3,0.6-1,1.1
	c-2.9-1.1-6-2-9.1-2.7c0.6,0,1.1-0.1,1.5-0.3C442.1,145.4,446.4,145.9,449.8,147.9 M420.5,148.9c-0.4,0.1-0.8,0.2-1.1,0.2
	c-0.5,0-1,0.1-1.5,0.1c0.3-0.4,0.6-0.7,0.9-1c0,0.4,0.3,0.8,0.8,0.7C420,149,420.2,149,420.5,148.9 M422.3,146.6c0.2,0,0.4,0,0.5,0
	c-0.2,0.1-0.3,0.3-0.3,0.5c-0.8,0.1-1.6,0.2-2.4,0.2C420.8,147,421.5,146.7,422.3,146.6 M408.7,149.5c1-0.3,2-0.6,3-0.8
	c-1.1,0.4-2.2,0.8-3.3,1.2c-0.3,0.1-0.5,0.2-0.8,0.3C408,150,408.4,149.7,408.7,149.5 M413,149.7c1.1-0.3,2.3-0.6,3.3-0.9
	c-0.2,0.2-0.3,0.4-0.5,0.7c0,0.1-0.1,0.2-0.1,0.2C414.8,149.6,413.8,149.6,413,149.7 M409.9,151.4c0.9-0.1,2.9-0.4,4.5-0.3
	c-0.1,0-0.3,0.1-0.4,0.1c-1.1,0.2-2.1,0.5-3.2,0.9c-0.1,0-0.1,0.1-0.2,0.1c-0.2-0.2-0.4-0.3-0.6-0.3c-1.4,0.2-2.6,0.5-3.8,1
	C407.3,152.3,408.4,151.6,409.9,151.4 M399.6,155.7c0.8-0.6,1.7-1.1,2.6-1.6c0,0.2,0,0.4,0.1,0.5c-0.5,0.4-1.1,0.9-1.6,1.3
	C400.4,155.7,400,155.6,399.6,155.7 M390.4,163.7c0.5-0.8,1-1.6,1.6-2.3c-0.3,0.8-0.6,1.6-0.9,2.4
	C390.9,163.8,390.7,163.8,390.4,163.7 M389.4,166.8c0.2-0.1,0.4-0.3,0.6-0.4c0,0.2,0,0.4,0,0.6c-0.2,0.3-0.3,0.7-0.5,1
	c-0.1,0.2-0.2,0.5-0.3,0.7C389.2,168.1,389.3,167.1,389.4,166.8 M386.6,179.2c-0.1,0.5-0.2,0.9-0.3,1.4l-0.3-3
	C386.2,178.2,386.4,178.7,386.6,179.2 M389.5,176.7c-0.1-0.6-0.2-1.2-0.3-1.7c0.2-0.5,0.4-1.1,0.6-1.6
	C390.1,174.5,389.9,175.6,389.5,176.7 M383.1,176.4c0.4,0.2,0.8,0.2,1.2,0.1l0.4,4.3c-0.2,0.1-0.2,0.3-0.2,0.6
	c0.1,0.4,0.1,0.9,0.1,1.3c-0.1,0.2-0.2,0.5-0.1,0.7c-0.2,0.4-0.5,0.6-1.3,0.5c-0.3,0-0.6-0.1-0.9-0.1c-0.4-1.8-0.8-3.6-1.3-5.3
	c-0.4-1.4-0.9-3.1-2.1-3.9c-0.9-0.5-1.5,0.9-0.7,1.4c0.9,0.6,1.3,2.9,1.6,3.9c0.3,1.2,0.6,2.4,0.8,3.6c-1.1-0.2-2.1-0.5-3.2-0.8
	c-0.5-3.4-1.5-6.6-2.7-9.7C377.7,173.8,380.6,174.8,383.1,176.4 M373,172.6c1.2,3.2,2.3,6.3,2.8,9.7c-1.4-0.5-2.9-0.9-4.3-1.3l0,0
	c-0.2-2.1-0.3-4.2-0.8-6.3c-0.2-0.9-0.6-1.8-0.9-2.7C370.9,172.1,371.9,172.3,373,172.6 M368,171.4c0.5,1.4,1.1,2.7,1.4,4.1
	c0.4,1.6,0.4,3.3,0.5,4.9c-0.9-0.3-1.8-0.5-2.7-0.7h-0.1c0-0.1,0-0.3,0-0.5c-0.7-2.1-1.5-4.4-1.7-6.7c-0.1-0.7-0.2-1.3-0.4-2
	C366,170.9,367,171.2,368,171.4 M363.1,170.1c0.7,1.5,0.7,3.3,1.1,5c0.3,1.5,0.7,2.9,1.2,4.3c-1.2-0.3-2.5-0.6-3.8-1.1
	c-0.2-2.5-0.7-4.8-1.2-7.2c-0.1-0.7-0.3-1.5-0.5-2.2C361,169.3,362,169.7,363.1,170.1 M357.9,167.6c0.8,1.3,0.9,3.1,1.2,4.6
	c0.4,1.7,0.6,3.4,0.8,5.1c-1.1-0.7-2-1.6-2.3-2.8c-0.5-1.6-0.7-3.4-1-5.1c0.1-0.3,0.2-0.5,0.1-0.9c-0.2-0.7-0.3-1.4-0.4-2.2
	C356.8,166.8,357.4,167.2,357.9,167.6 M353.9,169.4c0.2,0.7,0.7,1,1.2,1c0.2,1.6,0.4,3.1,0.9,4.6c-2.1-1.1-2.9-2.5-3.4-5.3
	c-0.3-1.5-0.4-3-0.2-4.5c0.3,0.1,0.7-0.1,0.9-0.4C353.3,166.4,353.5,167.9,353.9,169.4"/>
<path fill="#E2E2E2" d="M771.3,365.3c-43.4,43.6-72.1,25.4-72.1,25.4l4.7,35.8c51.3,4.6,78.7-48.4,78.7-48.4L771.3,365.3z"/>
<path fill="#F6C8B1" d="M527.7,404.5c-2.6-2.9-6.7-4.8-11.1-5.6c-1.4-5,0.1-12.9-1.1-16.4c-1.9-5.4-8.5-8-12.5-2.5
	c-3.6,5-3,13.4,0.2,20c-4.9,2.2-8.1,6.8-6.5,14.2c1.2,5.4,6.5,11.1,11.5,13.1c9,3.6,17.5-7.5,23.4-13.6L527.7,404.5z"/>
<path fill="#E2E2E2" d="M535.2,407.4l-4.1,19.8c0,0,38.4,11.1,64.1-4.7l11.1-46.6C606.3,376,574.3,416.8,535.2,407.4z"/>
<path fill="#F67480" d="M608.4,373.9c-6.9,2.5-13.6,5.3-20.4,7.9c0.8,30.3,9,76.3,9,76.3C594.8,430,606.7,380.9,608.4,373.9z"/>
<path fill="#41677A" d="M714.8,455.7c-0.1,2.6-0.2,4.1-0.2,4.1C714.7,458.5,714.8,457.2,714.8,455.7z"/>
<path fill="#F67480" d="M714.3,376.1c-6.1-0.7-12.2-1.4-18.3-2.1c4.5,12.5,18.9,55.3,18.7,81.7c0.5-12.9,1.9-53.5,1-79.3
	C715.3,376.3,714.8,376.2,714.3,376.1z"/>
<path fill="#E2E2E2" d="M694.5,373.1h-85.9c0,0-17.2,55.3-9.6,106h115.6C714.6,479.1,722.2,428.4,694.5,373.1z"/>
<rect x="644.7" y="378.3" fill="#CFC5C1" width="15.1" height="100.2"/>
<path fill="#FFFFFF" d="M606.3,373.7c0,0,23.9,33.2,37.9,25.6c9.9-5.4,6.4-23.9,6.4-23.9L606.3,373.7z"/>
<path fill="#FFFFFF" d="M695.7,373.7c0,0-12.5,27.4-31.7,25.6c-11.2-1-12.5-23.9-12.5-23.9L695.7,373.7z"/>
<g>
	<path fill="#5B2210" d="M737.2,269.1c-4.5-8.9-10.6-16.6-17.7-23c8.5-7.5,16.5-24.6,13.7-32.4c-3.9-10.9-16.4,5.3-21.9,8
		c6.4-4.8,3.8-15.2-5-12.7c-4.6,1.3-9.5,8.3-13.3,11c-9.5,6.5-16.9,5.2-27.8,4.3c-34.1-2.8-77.8-0.8-104.2,24.3
		c-7.1,6.7-13.8,16.1-17.9,25c-4.6,10.3-7.3,26.1-4.4,37.3c2.5,9.8,9.8,23.5,19.8,27.3l176.5-2.9c0.7-0.7,1.3-1.4,1.9-2.3
		C748.1,316.6,745.7,285.6,737.2,269.1z"/>
	<g>
		<path fill="#E9A687" d="M555.6,319c-1.5-7.8-14.9-1.1-17,3.4c-12.1,25.1,28.4,36.3,39.2,17.9L555.6,319z"/>
		<path fill="#E9A687" d="M735,319c1.5-7.8,14.9-1.1,17,3.4c12.1,25.1-28.4,36.3-39.2,17.9L735,319z"/>
	</g>
	<path fill="#F6C8B1" d="M720.4,291c-6.3-6.4-14.3-12.1-22.6-16.6c-23.2,10.7-44.8,5-68.3-0.1c-20.5-4.5-42.9-6.2-58.3,11
		c-7.7,8.6-16.9,27.1-15.9,39c0.1,0.8,0.2,1.6,0.3,2.5c5.5,38.4,43.9,50.5,77.7,52c30.7,1.4,79.7,1.1,97.6-29.6
		C741.9,330.1,735.3,306.1,720.4,291z"/>
	<path opacity="0.2" fill="#FF505D" d="M599.9,320.7c17.4,0.4,24,27.1,5.9,31.8c-8.9,2.4-21.1-1.7-22.8-11.7
		C581.4,331.2,590.1,320.4,599.9,320.7z"/>
	<path opacity="0.2" fill="#FF505D" d="M696,318.9c17.4,0.4,24,27.1,5.9,31.8c-8.9,2.4-21.1-1.7-22.8-11.7
		C677.5,329.5,686.2,318.7,696,318.9z"/>
	<path fill="#F68977" d="M642.7,310.2c0.8,2.4,2.7,5.3,5.2,6.3c5.5,2.3,14.8-4.9,16.4,4.2c2.5,13.9-23.1,17.3-22.2-0.6
		C642.1,320.1,642.7,310.2,642.7,310.2z"/>
	<g>
		<path fill="#FFFFFF" d="M601.3,298.2c7.8-2.8,16.7-1.1,20.1,10.6c3.4,11.8-17.9,14.7-25.1,12.2C581.2,315.6,590,302.2,601.3,298.2
			z"/>
		<path fill="#423A37" d="M604.4,316.1c8.3,1.8,9.6-11,1.2-11.8C597.6,303.6,596.3,314.4,604.4,316.1z"/>
	</g>
	<g>
		<path fill="#FFFFFF" d="M688.2,295.3c-7.8-2.8-16.7-1.1-20.1,10.6c-3.4,11.8,17.9,14.7,25.1,12.2
			C708.2,312.7,699.5,299.3,688.2,295.3z"/>
		<path fill="#423A37" d="M685.1,313.2c-8.3,1.8-9.6-11-1.2-11.8C691.9,300.7,693.1,311.5,685.1,313.2z"/>
	</g>
	<g>
		<path fill="#423A37" d="M624.3,340.8c0,0,23.9,6.4,47.2-2.3c0,0-2,19.2-21.3,19.8C631,358.8,624.3,340.8,624.3,340.8z"/>
		<path fill="#B31E1E" d="M632.5,352.4c0,0,16.3-12.2,33.8-2.3C666.3,350.1,654,367.5,632.5,352.4z"/>
		<path fill="#FFFFFF" d="M630.2,341.6c0,0,21.5,2.3,33.8-1.7C663.9,339.9,653.5,356.2,630.2,341.6z"/>
	</g>
	<path fill="#6D331D" d="M604.7,290.3c4.7-3.9,6.4-8.2-1-6.4c-2.8,0.7-15.6,5.7-14.9,8.8C590,298.6,602.7,291.9,604.7,290.3z"/>
	<path fill="#6D331D" d="M684.2,290c-4.7-3.9-6.4-8.2,1-6.4c2.8,0.7,15.6,5.7,14.9,8.8C698.9,298.3,686.2,291.6,684.2,290z"/>
</g>
<g>
	<circle fill="#FFFFFF" cx="652.3" cy="408" r="5.5"/>
	<circle fill="#FFFFFF" cx="652.3" cy="433.1" r="5.5"/>
	<circle fill="#FFFFFF" cx="653.5" cy="458.1" r="5.5"/>
</g>
<rect x="523.1" y="404.3" transform="matrix(0.9777 0.21 -0.21 0.9777 99.3299 -102.251)" fill="#FFFFFF" width="16.2" height="24.7"/>
<path fill="#F6C8B1" d="M501.6,402.4c4.1-0.2,8.1-2.1,5-6.7c-2.4-3.6-9-3.3-12.8-3.9l-2.3-0.3c-6.3,0.7-7.8,5.3-2.5,8.6
	c1.6,1,4.6,1.7,7.5,2c-1.4-0.1-2.7-0.2-3.9-0.4l-2.3-0.3c-6.3,0.7-7.8,5.3-2.5,8.6c0.4,0.3,1,0.5,1.6,0.8c-6,0.8-7.4,5.3-2.2,8.6
	c2.6,1.6,9.5,2.5,12.6,2.3c4.1-0.2,8.1-2.1,5-6.7c-0.9-1.3-2.3-2.1-4-2.6c3.9-0.3,7.5-2.3,4.6-6.7c-1.4-2.2-4.4-2.9-7.4-3.3
	C499.4,402.4,500.7,402.4,501.6,402.4z"/>
<path fill="#F6C8B1" d="M778,328.7c4.7,0.5,4.3,8.6,3.3,13.4c3.5-5.5,17.7-28,19.7-21.5c0.9,3-0.4,6.7-2.3,10
	c3.1-3.9,8.1-12.9,13.4-9.5c3.3,2.1-3.4,10.6-6.3,15c3.3-3.5,6.7-11,10.9-8.2c7.3,3.3-7.2,15.8-11.6,20.2c4.3-1.4,9.3-10.8,13.7-6.7
	c4.4,6.2-27.6,35.4-33,27.1l-12.9-3C771.9,356.9,772.6,330,778,328.7z"/>
<rect x="764.3" y="362.3" transform="matrix(0.8157 0.5785 -0.5785 0.8157 357.699 -381.2287)" fill="#FFFFFF" width="25.6" height="16.9"/>
<path fill="#0D7DCC" d="M599,479.1h115.6c0,0-24.2,71-25.3,123.5h-15.1l-3.8-90l-12.2-0.2l-9.3-0.1l6.4,90.8h-16
	C639.2,603.1,627.5,524.8,599,479.1z"/>
<rect x="596.4" y="472.7" fill="#8A4833" width="119.4" height="9.9"/>
<g>
	<path fill="#6D331D" d="M660.4,625.2c-0.3-5-1.5-14.7-6.1-19.2h-15.7c0,0-21.6,3.6-21.4,19.2H660.4z"/>
	<polygon fill="#7098A9" points="655.5,606.6 634.5,606.6 632.8,597.3 655.5,597.3 	"/>
</g>
<g>
	<path fill="#6D331D" d="M712.3,625.2c-0.1-15.6-20.9-17.2-20.9-17.2h-15.7c-4.2,4.2-5.5,12.2-6,17.2H712.3z"/>
	<polygon fill="#7098A9" points="671.8,607.8 692.8,607.8 694.6,598.4 671.8,598.4 	"/>
</g>
<path fill="#8A4833" d="M711.3,221.6c0,0-16.4,42.8-76.1,34.3c0,0,53-1.9,74.8-46.4C710,209.5,719.5,209.5,711.3,221.6z"/>
<path fill="#8A4833" d="M659.8,279.6c0,0,70.1,11.4,73.3-66c0,0-3.3-7-9.9-1.3C723.3,212.3,710,281.5,659.8,279.6z"/>
</svg>
