<?xml version="1.0"?>
<svg xmlns:rdf="http://www.w3.org/1999/02/22-rdf-syntax-ns#" xmlns="http://www.w3.org/2000/svg" xmlns:cc="http://creativecommons.org/ns#" xmlns:dc="http://purl.org/dc/elements/1.1/" xmlns:svg="http://www.w3.org/2000/svg" id="svg2" viewBox="0 0 220.71 210.36" version="1.1">
  <g id="layer1" transform="translate(-177.5 -632.36)">
    <g id="g3961">
      <path id="path2890" d="m177.5 701.59 32.621 36.518h4.5115l8.3288-8.749v109.55l1.3881 3.8039 125.97-0.38041 3.8174-2.6628-1.0411-109.17 9.3699 9.1294 3.8174-0.76078 31.927-35.757v-5.3255l-41.991-45.647-43.726-19.78s-15.964 18.639-47.544 0.76079l-41.644 15.976-45.809 52.494z" fill="#c22518"/>
      <path id="path2892" style="block-progression:tb;color:#000000;text-transform:none;text-indent:0" fill="#f44800" d="m224.17 652.24a0.9718 1.0463 0 0 0 -0.7895 1.1443s1.1245 15.107 1.7308 30.96c0.30316 7.9268 0.46525 16.021 0.30365 22.493-0.0808 3.236-0.24863 6.073-0.51621 8.2387-0.26759 2.1657-0.71254 3.7146-0.9717 4.0866a0.97478 1.0495 0 1 0 1.5486 1.275c0.78194-1.1225 1.0837-2.7787 1.3664-5.0674 0.2828-2.2887 0.43434-5.1882 0.51622-8.4675 0.16375-6.5586 0.00049-14.704-0.30366-22.656-0.6083-15.905-1.7308-31.059-1.7308-31.059a0.9718 1.0463 0 0 0 -1.1539 -0.9481z"/>
      <path id="path2894" style="block-progression:tb;color:#000000;text-transform:none;text-indent:0" fill="#f44800" d="m256.48 637.66a0.9718 1.0463 0 0 0 -0.81987 1.177s0.96633 8.1204 5.5265 15.889c4.5602 7.7685 12.916 15.253 27.116 13.797 14.731-1.5105 22.506-6.2055 26.904-11.868 4.3976-5.6622 5.3757-12.118 6.893-16.837a0.9795 1.0546 0 0 0 -1.8523 -0.68656c-1.606 4.9953-2.541 11.01-6.559 16.183-4.018 5.1733-11.148 9.6371-25.568 11.116-13.515 1.3858-20.993-5.4887-25.295-12.816-4.3011-7.327-5.2532-15.039-5.2532-15.039a0.9718 1.0463 0 0 0 -1.0932 -0.91541z"/>
      <path id="path2896" style="block-progression:tb;color:#000000;text-transform:none;text-indent:0" fill="#f44800" d="m264.25 636.87-1.5183 1.275c0.0366 0.0646 0.0848 0.0993 0.12146 0.16347 5.7791 10.11 12.006 15.416 18.159 17.491 6.1914 2.0877 12.19 0.88212 17.369-1.5693 10.358-4.9028 17.642-14.875 17.642-14.875l-1.1843-1.5693c-16.82 9.2395-29.475 8.9231-37.927 6.3752-8.4519-2.5479-12.662-7.2906-12.662-7.2906zm46.824 5.1001c-2.9129 3.2263-7.2057 7.407-13.452 10.364-4.8853 2.3125-10.382 3.3767-16.033 1.4712-4.5626-1.5385-9.2844-5.2175-13.907-11.737 2.2033 1.4299 4.9964 2.9656 8.7149 4.0866 8.0727 2.4336 19.757 2.8044 34.677-4.1847z"/>
      <path id="path2898" style="block-progression:tb;color:#000000;text-transform:none;text-indent:0" fill="#f44800" d="m225.99 833.07a0.97277 1.0473 0 1 0 0.091 2.0924l125.62 0.39232a0.9718 1.0463 0 1 0 0 -2.0924l-125.62-0.39232a0.9718 1.0463 0 0 0 -0.091 0z"/>
      <path id="path2900" style="block-progression:tb;color:#000000;text-transform:none;text-indent:0" fill="#f44800" d="m394.64 697.06a0.9718 1.0463 0 0 0 -0.57694 0.32693l-32.643 34.753a0.97702 1.0519 0 1 0 1.3968 1.4712l32.613-34.753a0.9718 1.0463 0 0 0 -0.78951 -1.7981z"/>
      <path id="path2902" style="block-progression:tb;color:#000000;text-transform:none;text-indent:0" fill="#f44800" d="m183.3 697.06a0.9718 1.0463 0 0 0 -0.57694 1.7981l30.882 33.249a0.9718 1.0463 0 1 0 1.3664 -1.4712l-30.88-33.25a0.9718 1.0463 0 0 0 -0.78951 -0.32693z"/>
      <path id="path2904" style="block-progression:tb;color:#000000;text-transform:none;text-indent:0" fill="#f44800" d="m351.59 654.1a0.9718 1.0463 0 0 0 -0.81987 0.85003s-2.1863 12.956-3.1884 27.92c-0.50104 7.482-0.7226 15.482-0.21256 22.656 0.51005 7.1742 1.718 13.526 4.2208 17.818a0.9718 1.0463 0 1 0 1.6397 -1.1116c-2.1821-3.7416-3.4186-9.8574-3.9172-16.87-0.49853-7.0123-0.28411-14.945 0.21256-22.362 0.99335-14.833 3.158-27.658 3.158-27.658a0.9718 1.0463 0 0 0 -1.0932 -1.2423z"/>
      <path id="path3741" d="m285.73 694.99c-9.7248-22.755-37.366-17.446-37.548 8.9652-0.1005 14.505 13.162 19.927 21.993 25.725 8.5625 5.6245 14.657 13.317 15.612 16.592 0.81786-3.2089 7.6051-11.119 15.532-16.748 8.6673-6.1558 22.094-11.222 21.993-25.727-0.18257-26.476-28.305-30.655-37.582-8.8068z" fill="#eee"/>
    </g>
  </g>
  <metadata>
    <rdf:RDF>
      <cc:Work>
        <dc:format>image/svg+xml</dc:format>
        <dc:type rdf:resource="http://purl.org/dc/dcmitype/StillImage"/>
        <cc:license rdf:resource="http://creativecommons.org/licenses/publicdomain/"/>
        <dc:publisher>
          <cc:Agent rdf:about="http://openclipart.org/">
            <dc:title>Openclipart</dc:title>
          </cc:Agent>
        </dc:publisher>
        <dc:title>Red T-shirt</dc:title>
        <dc:date>2010-08-04T23:12:41</dc:date>
        <dc:description>red t-shirt with white heart</dc:description>
        <dc:source>http://openclipart.org/detail/77629/red-t-shirt-by-shokunin</dc:source>
        <dc:creator>
          <cc:Agent>
            <dc:title>shokunin</dc:title>
          </cc:Agent>
        </dc:creator>
        <dc:subject>
          <rdf:Bag>
            <rdf:li>clip art</rdf:li>
            <rdf:li>clipart</rdf:li>
            <rdf:li>clothes</rdf:li>
            <rdf:li>clothing</rdf:li>
            <rdf:li>heart</rdf:li>
            <rdf:li>love</rdf:li>
            <rdf:li>red</rdf:li>
            <rdf:li>t-shirt</rdf:li>
          </rdf:Bag>
        </dc:subject>
      </cc:Work>
      <cc:License rdf:about="http://creativecommons.org/licenses/publicdomain/">
        <cc:permits rdf:resource="http://creativecommons.org/ns#Reproduction"/>
        <cc:permits rdf:resource="http://creativecommons.org/ns#Distribution"/>
        <cc:permits rdf:resource="http://creativecommons.org/ns#DerivativeWorks"/>
      </cc:License>
    </rdf:RDF>
  </metadata>
</svg>
