<?xml version="1.0" encoding="UTF-8" standalone="no"?>
<!-- Created with Inkscape (http://www.inkscape.org/) -->

<svg
   xmlns:dc="http://purl.org/dc/elements/1.1/"
   xmlns:cc="http://creativecommons.org/ns#"
   xmlns:rdf="http://www.w3.org/1999/02/22-rdf-syntax-ns#"
   xmlns:svg="http://www.w3.org/2000/svg"
   xmlns="http://www.w3.org/2000/svg"
   xmlns:sodipodi="http://sodipodi.sourceforge.net/DTD/sodipodi-0.dtd"
   xmlns:inkscape="http://www.inkscape.org/namespaces/inkscape"
   width="72.679962mm"
   height="18.937021mm"
   viewBox="0 0 257.52742 67.099683"
   id="svg2"
   version="1.1"
   inkscape:version="0.91 r13725"
   sodipodi:docname="Sold stamp.svg">
  <defs
     id="defs4" />
  <sodipodi:namedview
     id="base"
     pagecolor="#ffffff"
     bordercolor="#666666"
     borderopacity="1.0"
     inkscape:pageopacity="0.0"
     inkscape:pageshadow="2"
     inkscape:zoom="4"
     inkscape:cx="129.48228"
     inkscape:cy="34.085847"
     inkscape:document-units="px"
     inkscape:current-layer="layer1"
     showgrid="false"
     fit-margin-top="3"
     fit-margin-left="3"
     fit-margin-right="3"
     fit-margin-bottom="3"
     inkscape:window-width="1280"
     inkscape:window-height="962"
     inkscape:window-x="-8"
     inkscape:window-y="-8"
     inkscape:window-maximized="1" />
  <metadata
     id="metadata7">
    <rdf:RDF>
      <cc:Work
         rdf:about="">
        <dc:format>image/svg+xml</dc:format>
        <dc:type
           rdf:resource="http://purl.org/dc/dcmitype/StillImage" />
        <dc:title></dc:title>
      </cc:Work>
    </rdf:RDF>
  </metadata>
  <g
     inkscape:label="Layer 1"
     inkscape:groupmode="layer"
     id="layer1"
     transform="translate(-90.969689,-402.5693)">
    <path
       id="rect3352"
       style="color:#000000;font-style:normal;font-variant:normal;font-weight:normal;font-stretch:normal;font-size:medium;line-height:normal;font-family:sans-serif;text-indent:0;text-align:start;text-decoration:none;text-decoration-line:none;text-decoration-style:solid;text-decoration-color:#000000;letter-spacing:normal;word-spacing:normal;text-transform:none;direction:ltr;block-progression:tb;writing-mode:lr-tb;baseline-shift:baseline;text-anchor:start;white-space:normal;clip-rule:nonzero;display:inline;overflow:visible;visibility:visible;opacity:1;isolation:auto;mix-blend-mode:normal;color-interpolation:sRGB;color-interpolation-filters:linearRGB;solid-color:#000000;solid-opacity:1;fill:#ff0000;fill-opacity:1;fill-rule:evenodd;stroke:none;stroke-width:2.11097646;stroke-linecap:round;stroke-linejoin:round;stroke-miterlimit:4;stroke-dasharray:none;stroke-dashoffset:0;stroke-opacity:1;color-rendering:auto;image-rendering:auto;shape-rendering:auto;text-rendering:auto;enable-background:accumulate"
       d="m 102.65625,413.19922 a 1.0555938,1.0555938 0 0 0 -1.05664,1.05469 l 0,43.73047 a 1.0555938,1.0555938 0 0 0 1.05664,1.05468 l 234.1543,0 a 1.0555938,1.0555938 0 0 0 1.05664,-1.05468 l 0,-43.73047 a 1.0555938,1.0555938 0 0 0 -1.05664,-1.05469 l -234.1543,0 z m 1.05469,2.10937 232.04492,0 0,41.61914 -232.04492,0 0,-41.61914 z m 195.47778,6.06094 0,29.99268 -20.1724,0 -1.17862,0 q -1.63193,0 -2.53855,-0.28565 -0.8613,-0.30762 -0.8613,-0.85693 0,-0.90088 1.81325,-1.18653 1.49594,-0.2417 1.72259,-0.28564 0.27199,-0.0659 0.54397,-0.26367 0.54399,-0.35157 0.54399,-1.12061 l 0,-21.99463 q 0,-0.76904 -0.54399,-1.1206 -0.27198,-0.19776 -0.54397,-0.2417 -0.22665,-0.0659 -1.72259,-0.30762 -1.81325,-0.28564 -1.81325,-1.18652 0,-0.54932 0.8613,-0.83496 0.90662,-0.30762 2.53855,-0.30762 l 1.17862,0 20.1724,0 z m 9.1569,23.70849 0,-17.33642 q 0,-1.604 -0.95195,-2.54883 -0.58931,-0.61523 -1.4506,-0.90088 -0.86129,-0.28564 -2.71987,-0.48339 l 0,-2.43897 q 2.40255,0 4.07981,0.0879 5.75706,0.30762 11.15148,2.37305 5.34909,1.99951 7.93297,5.20752 2.67453,3.25195 2.67453,7.20703 0,4.48242 -3.39983,7.97607 -3.39985,3.47168 -9.74622,5.47119 -3.08253,0.9668 -5.75707,1.31836 -2.62921,0.35157 -6.93567,0.35157 l 0,-2.37305 q 1.90391,-0.2417 2.62921,-0.43945 0.77062,-0.19776 1.31461,-0.61524 0.67996,-0.4834 0.90662,-1.07666 0.27198,-0.61523 0.27198,-1.77979 z m -58.65861,6.28419 -20.1724,0 -1.17862,0 q -1.63193,0 -2.53855,-0.28565 -0.8613,-0.30762 -0.8613,-0.85693 0,-0.90088 1.81325,-1.18653 1.49594,-0.2417 1.72259,-0.28564 0.27199,-0.0659 0.54397,-0.26367 0.54399,-0.35157 0.54399,-1.12061 l 0,-21.99463 q 0,-0.76904 -0.54399,-1.1206 -0.27198,-0.19776 -0.54397,-0.2417 -0.22665,-0.0659 -1.72259,-0.30762 -1.81325,-0.28564 -1.81325,-1.18652 0,-0.54932 0.8613,-0.83496 0.90662,-0.30762 2.53855,-0.30762 l 1.17862,0 20.21773,0 1.54125,0 q 1.99458,0 2.85588,0.26368 1.1786,0.35156 1.1786,0.92284 0,0.9668 -2.1759,1.2085 -1.76792,0.19775 -2.08523,0.26367 -0.31732,0.0659 -0.67997,0.26367 -0.67996,0.39551 -0.67996,1.23047 l 0,25.83985 z m 3.67182,0 0,-2.46094 q 2.22123,-0.19776 3.49051,-0.43945 1.31461,-0.2417 2.49321,-0.70313 1.90392,-0.7251 3.49051,-1.99951 1.5866,-1.27441 2.58388,-2.83448 0.72531,-1.20849 1.31461,-1.58202 0.63463,-0.39551 1.81325,-0.39551 1.26928,0 1.85858,0.50537 0.27199,0.2417 0.27199,0.9668 l 0,8.94287 -17.31654,0 z m -63.50906,-28.21289 q -2.3119,0.3955 -3.26386,1.07665 -0.95195,0.68116 -0.95195,1.99952 l 0,19.64355 q 0,1.93359 1.08794,2.72461 0.86131,0.65918 3.12787,0.94483 l 0,2.41698 q -10.06354,-0.3955 -16.86323,-3.66942 -8.83959,-4.2627 -8.83959,-11.88721 0,-3.82324 2.31189,-6.89941 2.35722,-3.09815 6.93569,-5.25147 3.49049,-1.64795 7.52497,-2.50488 4.03448,-0.85694 8.93027,-0.9668 l 0,2.37305 z m 3.71716,0 0,-2.37305 q 4.89577,0.10986 8.93025,0.9668 4.07981,0.85693 7.57032,2.50488 9.24756,4.37256 9.24756,12.15088 0,7.62451 -8.83958,11.88721 -6.79968,3.29589 -16.90855,3.66942 l 0,-2.41698 q 1.1786,-0.13184 1.81325,-0.32959 0.67997,-0.21973 1.22394,-0.61524 1.22395,-0.90088 1.22395,-2.72461 l 0,-19.64355 q 0,-1.16455 -0.81598,-1.84571 -0.54397,-0.46142 -1.31459,-0.72509 -0.72531,-0.26368 -2.13057,-0.50537 z m -58.70396,-2.37305 0,2.52685 q -2.81054,0.37354 -4.30647,1.16455 -1.4506,0.76905 -1.4506,1.91162 0,1.09864 1.22395,1.9336 1.22394,0.81299 3.98914,1.56006 1.90392,0.50537 8.61294,1.93359 4.07982,0.85694 6.30105,1.56006 2.26656,0.68115 4.26113,1.71387 5.34909,2.72461 5.34909,6.48193 0,2.83448 -2.90121,5.18555 -2.90119,2.35107 -7.97829,3.6914 -2.71987,0.70313 -5.98373,1.09864 -3.21851,0.41747 -6.02905,0.41747 l 0,-2.50487 q 3.94382,-0.46143 5.6664,-1.27442 1.76792,-0.83496 1.76792,-2.24121 0,-1.47217 -2.71987,-2.59277 -1.81325,-0.7251 -6.89035,-1.80176 -5.57574,-1.18652 -7.66098,-1.6919 -2.03991,-0.50536 -3.94382,-1.18652 -8.52227,-2.94433 -8.52227,-7.84424 0,-2.50488 2.13057,-4.61426 2.13057,-2.13134 5.93839,-3.42773 5.30375,-1.80176 13.14606,-1.99951 z m 3.58117,2.52685 0,-2.41699 q 2.71987,0.0879 4.71445,0.35156 1.99457,0.2417 5.66641,0.98877 0.90662,0.17578 1.49592,0.17578 0.8613,0 1.26928,-0.28564 l 0.99728,-0.63721 q 0.72531,-0.48339 1.76792,-0.48339 1.22395,0 1.76792,0.43945 0.5893,0.41748 0.5893,1.34033 l 0,7.25098 q 0,0.63721 -0.77063,1.05468 -0.72529,0.39552 -1.90391,0.39552 -0.90662,0 -1.67726,-0.28565 -0.40797,-0.17578 -0.67996,-0.41748 -0.22666,-0.26367 -0.45331,-0.85694 -0.49864,-1.07666 -1.72259,-2.21923 -1.22395,-1.14258 -2.85586,-2.04346 -3.26386,-1.77979 -8.20496,-2.35108 z m -5.9384,26.14747 0,2.50487 q -3.71716,0 -8.20495,-1.03271 -1.67725,-0.37353 -2.31189,-0.4834 -0.63464,-0.10986 -1.22395,-0.10986 -0.90662,0 -1.35993,0.15381 -0.45332,0.13183 -1.4506,0.70313 -0.81596,0.48339 -1.76792,0.48339 -2.53855,0 -2.53855,-1.88965 l 0,-7.99804 q 0,-0.61524 0.7253,-1.03272 0.7253,-0.43945 1.81325,-0.46143 0.99729,-0.022 1.54126,0.28565 0.58931,0.28565 0.99729,1.03272 1.04262,1.88965 2.99186,3.53759 1.99457,1.64795 4.62379,2.79053 2.67454,1.18652 6.16504,1.51612 z"
       inkscape:connector-curvature="0" />
  </g>
</svg>
