<?xml version="1.0"?>
<svg xmlns:rdf="http://www.w3.org/1999/02/22-rdf-syntax-ns#" xmlns="http://www.w3.org/2000/svg" xmlns:cc="http://creativecommons.org/ns#" xmlns:xlink="http://www.w3.org/1999/xlink" xmlns:dc="http://purl.org/dc/elements/1.1/" xmlns:svg="http://www.w3.org/2000/svg" id="svg2" viewBox="0 0 500 250" version="1.1">
  <defs id="defs6">
    <linearGradient id="linearGradient3775">
      <stop id="stop3777" stop-color="#073884" offset="0"/>
      <stop id="stop3779" stop-color="#162d50" offset="1"/>
    </linearGradient>
    <filter id="filter3843" color-interpolation-filters="sRGB">
      <feGaussianBlur id="feGaussianBlur3845" stdDeviation="0.78687953"/>
    </filter>
    <linearGradient id="linearGradient3062" y2="357.33" gradientUnits="userSpaceOnUse" x2="208.65" gradientTransform="matrix(4.0339 0 0 4.0339 -659.26 -1393.7)" y1="354.39" x1="208.87">
      <stop id="stop3129" stop-color="#ac9d93" offset="0"/>
      <stop id="stop3131" stop-color="#f4e3d7" offset="1"/>
    </linearGradient>
    <linearGradient id="linearGradient3065" y2="143.33" gradientUnits="userSpaceOnUse" x2="371.85" gradientTransform="matrix(.50712 0 0 .50712 20.959 1.329)" y1="90.426" x1="378.48">
      <stop id="stop3121" stop-color="#f1f2f3" offset="0"/>
      <stop id="stop3123" stop-color="#b3b3b3" offset="1"/>
    </linearGradient>
    <linearGradient id="linearGradient3068" y2="180.72" gradientUnits="userSpaceOnUse" x2="841.21" gradientTransform="matrix(.50712 0 0 .50712 20.959 1.329)" y1="473.22" x1="834.98">
      <stop id="stop4023" stop-color="#1a1a1a" offset="0"/>
      <stop id="stop4025" stop-color="#999" offset="1"/>
    </linearGradient>
    <radialGradient id="radialGradient3070" gradientUnits="userSpaceOnUse" cy="87.547" cx="-76.886" gradientTransform="matrix(1.412 .0018340 -.0017940 1.3812 31.832 -33.233)" r="61.29">
      <stop id="stop3769" stop-color="#fff" offset="0"/>
      <stop id="stop3767" stop-color="#ccc" offset="1"/>
    </radialGradient>
    <linearGradient id="linearGradient3072" y2="255.25" xlink:href="#linearGradient3775" gradientUnits="userSpaceOnUse" x2="369.6" gradientTransform="matrix(.98408 -.17775 .17775 .98408 -329.13 90.046)" y1="71.417" x1="354.08"/>
    <linearGradient id="linearGradient3074" y2="85.849" gradientUnits="userSpaceOnUse" x2="454.71" gradientTransform="matrix(.98408 -.17775 .17775 .98408 -329.13 90.046)" y1="3.6063" x1="454.4">
      <stop id="stop3793" stop-color="#dbd020" offset="0"/>
      <stop id="stop3799" stop-color="#ffd42a" offset=".5"/>
      <stop id="stop3795" stop-color="#dbd020" offset="1"/>
    </linearGradient>
    <linearGradient id="linearGradient3076" y2="242.88" xlink:href="#linearGradient3775" gradientUnits="userSpaceOnUse" x2="565.07" gradientTransform="matrix(.98408 -.17775 .17775 .98408 -329.13 90.046)" y1="109.04" x1="587.82"/>
    <linearGradient id="linearGradient3078" y2="312.24" gradientUnits="userSpaceOnUse" x2="462.77" gradientTransform="matrix(.98408 -.17775 .17775 .98408 -329.13 90.046)" y1="254.18" x1="451.18">
      <stop id="stop3803" stop-color="#dbd020" offset="0"/>
      <stop id="stop3805" stop-color="#d4aa00" offset="1"/>
    </linearGradient>
    <radialGradient id="radialGradient3080" gradientUnits="userSpaceOnUse" cy="108.52" cx="42.779" gradientTransform="matrix(.38287 -.020334 .021779 .41009 55.13 53.161)" r="145.16">
      <stop id="stop3904" stop-color="#fff" stop-opacity=".7" offset="0"/>
      <stop id="stop3906" stop-color="#fff" stop-opacity="0" offset="1"/>
    </radialGradient>
    <radialGradient id="radialGradient3082" gradientUnits="userSpaceOnUse" cy="194.52" cx="150.15" gradientTransform="matrix(1.0098 -.30386 .089506 .29745 -17.192 151.14)" r="82.258">
      <stop id="stop3952" stop-color="#4d4d4d" offset="0"/>
      <stop id="stop3950" offset="1"/>
    </radialGradient>
  </defs>
  <path id="path3133" d="m20.198 52.469-0.20602 31.394-12.726 0.25356 0.031695 1.5214 12.678-0.25356-0.25356 37.036-12.456 0.23772 0.031695 1.5214 12.425-0.23771-0.23771 34.991-12.219 0.23771 0.031695 1.5214 12.171-0.23771-0.20602 31.949-11.997 0.23772 0.031695 1.5214 11.949-0.23772-0.09509 14.247h1.5214l0.09509-14.279 36.576-0.6973-0.3328 16.006 1.5214 0.0317 0.3328-16.069 1.4104-0.0317 38.018 9.8414-0.20602 9.778 1.5214 0.0317 0.19017-9.4135 0.42789 0.11093 0.12678 0.0317 0.11093-0.0158 39.54-2.8684-0.3328 16.18 1.5214 0.0317 0.3328-16.323 1.2995-0.0951 31.537 9.3976-0.20602 10.032 1.5214 0.0317 0.19017-9.6036 1.6165 0.47543 0.14263 0.0317 0.14262-0.0158 37.781-3.1378-0.31696 15.768 1.5214 0.0317 0.3328-15.927 0.53882-0.0475 36.354 10.158-0.20602 10.348 1.5214 0.0317 0.20602-9.9523 0.3645 0.0951 0.12678 0.0317 0.14262-0.0158 35.467-2.6782-0.30111 15.024 1.5214 0.0317 0.31696-15.166 1.6957-0.12678 31.141 8.9222-0.19017 9.3818 1.5214 0.0317 0.19018-8.9856 1.4738 0.42789 0.11094 0.0317h0.12678l31.806-1.1093-0.23771 11.632 1.5214 0.0317 0.23771-11.727 1.8859-0.0634 29.984 6.9729-0.15847 7.8287 1.5214 0.0317 0.15848-7.5118 1.5055 0.34864 0.12678 0.0158 0.12678-0.0158 28.288-3.3755-0.28525 13.55 1.5214 0.0317 0.28525-13.756 0.90332-0.11093 27.4 8.3834-0.19017 9.0014 1.5214 0.0317 0.17432-8.5736 2.1394 0.64975 0.0792 0.0158 0.0634 0.0158 27.337 2.5673 0.14263-1.5214-27.258-2.5673-2.4722-0.76068 0.64975-31.663 1.458 0.44373 0.0792 0.0158 0.0634 0.0158 27.337 2.5673 0.14263-1.5214-27.258-2.5673-1.7908-0.55467 0.71314-34.69 0.71314 0.22187 0.0792 0.0158 0.0634 0.0158 27.337 2.5673 0.14263-1.5214-27.258-2.5673-1.0459-0.31695 0.76069-36.719 0.0634 0.0158 27.337 2.5673 0.14263-1.5214-27.258-2.5673-0.25356-0.0792 0.74484-36.624-1.5214-0.03169-0.74484 36.196-28.288-8.6528 0.63391-31.061-1.5214-0.03169-0.63391 30.776-30.047 3.5816 0.76069-37.369-1.5214-0.03169-0.76069 37.242-31.87-7.4007 0.68145-32.852-1.5214-0.03169-0.68145 32.884-33.518 1.1727 0.72899-36.053-1.5214-0.03169-0.72899 35.8-32.836-9.4293 0.60221-29.381-1.5214-0.03169-0.60221 29.413-36.117 2.7258 0.71314-34.643-1.5214-0.03169-0.71314 34.785h-0.0475l-36.846-10.285 0.58636-29.033-1.5214-0.03169-0.58636 28.637h-0.0317l-0.12678 0.01582-39.54 3.2805 0.72899-35.451-1.5214-0.03169-0.71315 35.166-32.836-9.778 0.58636-28.399-1.5214-0.03169-0.58636 28.24-40.205 2.9318 0.72899-35.198-1.5214-0.03169-0.72899 35.34h-0.0792l-39.334-10.19 0.58636-28.668-1.5214-0.03169-0.58639 28.542-38.082 0.74484 0.20602-31.378h-1.5214zm39.365 32.155-0.76068 37.036-37.559 0.72899 0.25356-37.02 38.066-0.74484zm1.5214 0.19017 39.144 10.142 0.12678 0.03169 0.11093-0.01582h0.0317l-0.74484 36.846-39.159-10.158-0.11093-0.0317h-0.15848l0.76068-36.814zm81.14 7.1314-0.76068 37.052-40.205 2.9318 0.76069-37.068 40.205-2.916zm1.5214 0.22187 32.82 9.7938-0.74484 36.719-32.709-9.7463-0.12678-0.0475 0.76068-36.719zm73.882 6.7669 0.15848 0.04752-0.76069 37.02-39.255 3.2646-0.44373-0.12678 0.76069-36.925 39.54-3.2804zm1.664 0.45958 36.576 10.222 0.12678 0.0317 0.14262-0.0158h0.0634l-0.76069 36.814-36.893-10.301 0.74484-36.751zm74.547 7.4008-0.76069 37.083-36.117 2.7099 0.76069-37.083 36.117-2.7099zm1.5214 0.0634 32.836 9.4135-0.76068 36.751-32.282-9.2708-0.12678-0.0317-0.12678 0.0158-0.30111 0.0158 0.76069-36.893zm67.875 8.4785-0.76069 37.036-33.201 1.1727-0.31695-0.0951 0.76068-36.941 33.518-1.1727zm1.5214 0.0317 31.87 7.4008-0.76069 36.798-31.188-7.2424-0.0951-0.0158h-0.0951l-0.49128 0.0158 0.76069-36.957zm63.438 3.9619-0.76069 37.099-29.793 3.5499-0.25356-0.0634 0.76069-37.004 30.047-3.5816zm1.5214 0.3645 28.288 8.6528-0.74484 36.719-28.304-8.6528 0.76069-36.719zm-369.42 3.4548 39.429 10.222-0.71314 34.754-38.415-9.9523-0.11093-0.0317h-0.09509l-0.80823 0.0158 0.71314-35.007zm-1.5214 0.0317-0.71314 35.007-37.052 0.71314 0.23771-34.991 37.527-0.72899zm84.182 7.3057 32.836 9.778-0.71314 34.706-31.965-9.5244-0.12678-0.0475-0.14263 0.0158-0.60221 0.0475 0.71314-34.976zm-1.5214 0.0475-0.71314 35.039-40.205 2.9318 0.71315-35.055 40.205-2.916zm75.561 6.9888-0.72899 35.055-38.494 3.2012-1.1886-0.34864 0.71315-34.722 0.19017 0.0634 0.14263 0.0317 0.14262-0.0158 39.223-3.2646zm1.5214 0.20602 36.893 10.301-0.71315 34.722-36.766-10.269-0.12678-0.0317 0.71314-34.722zm76.322 7.5276 32.567 9.3342-0.71314 34.722-31.537-9.049-0.12678-0.0317-0.12678 0.0158-1.0459 0.0792 0.71314-35.055 0.26941-0.0158zm-1.7908 0.14263-0.72899 35.039-36.101 2.7258 0.71314-35.055 36.117-2.7099zm71.378 8.4309 31.41 7.3057-0.71315 34.77-30.443-7.068-0.0951-0.0158h-0.0951l-1.2361 0.0475 0.71314-35.023 0.45958-0.0158zm-1.981 0.0634-0.71314 35.023-32.456 1.141-1.0618-0.3011 0.71314-34.738 0.0475 0.0158 0.11093 0.0317h0.12678l33.232-1.1727zm64.959 4.057-0.71314 35.087-29.049 3.4548-0.9984-0.23772 0.71315-34.77 0.0792 0.0158 0.12678 0.0158 0.12678-0.0158 29.714-3.5499zm1.5214 0.0475 28.304 8.6528-0.71315 34.69-27.828-8.4943-0.15847-0.0475-0.15848 0.0317-0.15847 0.0158 0.71314-34.849zm-368.65 1.664 38.7 10.032-0.64975 31.727-37.733-9.778-0.11093-0.0317h-0.09509l-1.4897 0.0317 0.64975-31.965 0.72899-0.0158zm-2.2504 0.0475-0.64975 31.965-36.592 0.69729 0.20602-31.949 37.036-0.71314zm84.801 7.2424 32.218 9.6036-0.64976 31.695-31.283-9.3342-0.12678-0.0475-0.14263 0.0158-1.2837 0.0951 0.64975-31.98 0.61806-0.0475zm-2.1394 0.15848-0.64976 31.98-39.587 2.8843-0.61805-0.15847 0.64975-31.79 40.205-2.916zm77.083 6.9254 36.893 10.301-0.64975 31.695-36.085-10.079-0.14263-0.0317-0.12678 0.0158-0.53882 0.0475 0.64975-31.949zm-1.5372 0.0634-0.64975 32.012-37.812 3.1378-1.87-0.55467 0.64975-31.695 0.93501 0.28525 0.14263 0.0317 0.14262-0.0158 38.462-3.2012zm78.604 7.6702 31.822 9.1124-0.64975 31.711-30.855-8.8588-0.12678-0.0317-0.12678 0.0158-1.7274 0.12678 0.64975-31.996 1.0142-0.0792zm-2.5515 0.19017-0.64975 31.996-35.451 2.6782-0.64975-0.17433 0.64975-31.774 36.101-2.7258zm72.138 8.3834 30.665 7.1314-0.64975 31.743-29.762-6.9096-0.0951-0.0158h-0.0951l-1.9176 0.0634 0.64975-31.965 1.2044-0.0475zm-2.7258 0.0951-0.64975 31.98-31.774 1.1093-1.7432-0.50712 0.64975-31.695 0.79238 0.22187 0.11094 0.0317h0.12678l32.488-1.141zm66.703 3.9144 28.082 8.5894-0.64975 31.664-27.147-8.2883-0.15847-0.0475-0.15848 0.0317-0.83992 0.0951 0.64975-32.012 0.22187-0.0317zm-1.7432 0.20602-0.6656 32.028-28.351 3.3755-1.6798-0.39619 0.64975-31.743 0.82407 0.19017 0.12678 0.0158 0.12678-0.0158 28.969-3.4548z" style="block-progression:tb;color:#000000;text-transform:none;text-indent:0" fill="url(#linearGradient3068)"/>
  <path id="path2987-9" fill="url(#linearGradient3065)" d="m8.2746 13.037 476.45 43.313 2.55 40.766-479-45.861z"/>
  <path id="path2989-7" fill="url(#linearGradient3062)" d="m8.2337 12.98v14.119l477.52 45.633-1.01-16.388-476.51-43.364z"/>
  <g id="g3958" transform="matrix(.57623 0 0 .57623 114.04 4.6363)">
    <path id="path2995" d="m5.1312 100.74c0 33.849-27.44 61.29-61.29 61.29-33.849 0-61.29-27.44-61.29-61.29 0-33.849 27.44-61.29 61.29-61.29 33.849 0 61.29 27.44 61.29 61.29z" fill="url(#radialGradient3070)" transform="matrix(2.1055 -.38030 .37738 2.0893 235.96 -71.528)"/>
    <path id="path2991" d="m48.761 48.38s-54.2 45.627-40.385 126.81c14.407 84.668 81.011 105.3 81.011 105.3l-5.4872-17.549s-38.498-18.987-51.196-90.983c-5.48-31.071 19.392-81.886 19.392-81.886z" fill="url(#linearGradient3072)"/>
    <path id="path2987" d="m51.767 91.459s59.813-6.0849 86.803-10.804c56.235-9.8325 84.273-23.573 84.273-23.573l-11.33-40.248s-16.258-8.5621-25.102-10.672c-5.4528-1.3008-17.274-3.1961-22.928-3.2591-2.8418-0.03165-4.0723 1.3262-4.0723 1.3262l-1.4519-1.623s-22.179 1.0403-33.022 3.215c-10.886 2.1832-31.832 9.8052-31.832 9.8052l-2.4759 2.3302-3.3917 0.46779s-15.854 7.9025-22.988 13.083c-5.6706 4.1174-15.544 14.155-15.544 14.155l-1.4981 3.7468 4.1506 39.806z" fill="url(#linearGradient3074)"/>
    <path id="path2993" d="m210.77 16.872s67.349 24.901 82.809 105.79c16.123 84.358-40.84 126.73-40.84 126.73l1.3469-18.204s28.862-31.154 15.57-103.04c-5.7362-31.025-46.885-70.325-46.885-70.325z" fill="url(#linearGradient3076)"/>
    <path id="path2989" d="m82.789 263.21s59.051-10.304 85.986-15.325c56.121-10.462 85.417-17.239 85.417-17.239l-0.79545 18.049s-12.235 13.709-19.783 18.779c-4.6532 3.1262-15.064 9.0373-20.339 11.074-2.6512 1.0238-4.2789 0.18228-4.2789 0.18228l-0.79235 2.0284s-20.574 9.2259-31.527 11.493c-10.872 2.2501-33.251 1.9504-33.251 1.9504l-3.1347-1.3167-3.341 0.74831s-17.617-1.8568-26.113-4.2138c-6.7527-1.8734-19.514-7.8226-19.514-7.8226l-2.703-2.99-4.882-10.21z" fill="url(#linearGradient3078)"/>
    <path id="path3809" opacity=".1" style="block-progression:tb;color:#000000;text-transform:none;text-indent:0" d="m146.56 120.3c-38.157 0.0878-113.81 7.2812-113.81 7.2812l0.28125 2.9688s75.743-7.163 113.53-7.25c40.74-0.0938 122.44 7.25 122.44 7.25l0.25-3s-81.58-7.3446-122.69-7.25zm-115.53 66-0.28125 2.9688s75.655 7.1934 113.81 7.2812c41.108 0.0946 122.69-7.25 122.69-7.25l-0.25-3s-81.698 7.3438-122.44 7.25c-37.789-0.087-113.53-7.25-113.53-7.25z" transform="matrix(.98408 -.17775 .17775 .98408 -24.081 29.211)" filter="url(#filter3843)"/>
    <path id="path3818" opacity=".1" style="block-progression:tb;color:#000000;text-transform:none;text-indent:0" d="m158.23 2.9046-0.14821 0.058526s2.4181 7.6265 2.827 11.08c2.3022 19.445-0.25983 56.59-0.68126 62.332 1.1234-0.24527 2.206-0.47628 3.299-0.72292 0.58257-7.8847 2.9489-42.545 0.64454-62.008-0.39059-3.2991-1.8733-8.3199-2.5733-10.554-1.5009 0.37395-2.1787 1.1239-2.1787 1.1239l-1.1892-1.3095zm-65.719 13.268-1.872 1.7671-1.3335 0.17735c0.18403 2.6522 0.53196 6.3013 1.1526 8.8422 4.5738 18.726 18.509 49.587 22.132 57.481 1.1415-0.14887 2.2625-0.27125 3.3853-0.42095-2.7281-5.9488-17.738-39.062-22.322-57.828-0.61481-2.5172-0.99305-7.5866-1.1428-10.019z"/>
    <path id="path3830" opacity=".1" style="block-progression:tb;color:#000000;text-transform:none;text-indent:0" d="m199.24 242.05c-1.0748 0.21051-2.1736 0.44048-3.2794 0.65586 4.9231 11.876 10.294 25.868 12.729 35.839 0.0451 0.18467 0.0736 0.43569 0.11665 0.6458l0.19901-0.48053s1.161 0.59287 3.1107 0.1685c-0.0747-0.38566-0.14665-0.75565-0.23067-1.1015-2.4957-10.218-7.7714-23.979-12.646-35.727zm-61.751 11.503c-0.44834 12.629-0.54241 27.185 0.6834 37.539 0.08 0.67565 0.21134 1.4198 0.36368 2.189l1.767-0.41438 1.6846 0.71189c-0.24984-1.0811-0.45962-2.0974-0.55284-2.8852-1.2004-10.139-1.0496-24.974-0.59373-37.746-1.1179 0.19989-2.2246 0.40385-3.352 0.60546z"/>
    <path id="path3837" opacity=".3" d="m457.56 115.81c-37.498 0.0863-110.53 6.9977-112.53 7.1875l0.0625 0.65625c2.0571-0.1941 75.064-7.0702 112.47-7.1562 40.369-0.093 119.36 6.9759 121.38 7.1562l0.06-0.69c-2.0095-0.18012-80.988-7.2494-121.44-7.1562zm-114.47 66.094-0.0625 0.65625c2.0057 0.18984 75.033 7.1012 112.53 7.1875 40.45 0.0931 119.43-6.9761 121.44-7.1562l-0.0625-0.6875c-2.0106 0.18035-81.006 7.2492-121.38 7.1562-37.404-0.0861-110.41-6.9622-112.47-7.1562z" style="block-progression:tb;color:#000000;text-transform:none;text-indent:0" transform="matrix(.98408 -.17775 .17775 .98408 -329.13 90.046)"/>
    <path id="path3875" fill="url(#radialGradient3080)" d="m157.97 2.5938s-22.188 1.044-33.031 3.2188c-10.89 2.1831-31.846 9.8124-31.846 9.8124l-0.594 0.563-1.8438 1.75-1.3438 0.1875c0.000673 0.0097-0.000677 0.02153 0 0.03125l-2.062 0.281s-15.866 7.8822-23 13.062c-5.6706 4.1174-15.531 14.156-15.531 14.156l-1.5 3.75 0.031 0.344c-8.3784 7.8239-51.366 52.032-38.875 125.44 14.407 84.668 81 105.31 81 105.31l-0.5-1.625 2.4375 2.7188s12.779 5.9391 19.531 7.8125c8.4959 2.357 26.094 4.2188 26.094 4.2188l3.3438-0.75 3.1562 1.3125s22.378 0.31263 33.25-1.9375c10.953-2.2669 31.531-11.5 31.531-11.5l0.59375-1.5625c0.2247-0.0992 0.46353-0.18092 0.6875-0.28125 0.41197 0.10869 1.0731 0.19196 1.9375 0.0937 0.21834-0.0244 0.44378-0.072 0.6875-0.125 0.36376-0.0793 0.73959-0.18284 1.1562-0.34375 5.2743-2.0368 15.691-7.9363 20.344-11.062 6.9511-4.67 17.442-16.228 19.125-18.094 0 0 56.936-42.36 40.812-126.72-14.45-75.616-74.21-102.31-81.94-105.46l-0.0937-0.34375s-16.281-8.5777-25.125-10.688c-5.4528-1.3008-17.253-3.187-22.906-3.25-0.73872-0.00823-1.3786 0.056202-1.9062 0.1875-0.14426 0.035943-0.24582 0.083109-0.375 0.125-0.15295 0.048573-0.30505 0.10238-0.4375 0.15625-0.0476 0.019711-0.11133 0.042396-0.15625 0.0625-0.0844 0.037444-0.17483 0.086953-0.25 0.125-0.45111 0.23554-0.72148 0.44854-0.84375 0.5625-0.0329 0.031136-0.0886 0.088163-0.0937 0.09375l-1.1875-1.3125-0.28125-0.3125z"/>
    <path id="path3911" opacity=".8" d="m218.47 124.12c-0.4191 0.0335-0.81924 0.16911-1.2188 0.40625-0.76573 0.4546-1.1985 1.1481-1.3125 2.0938-0.11763 1.0154 0.0438 1.878 0.46875 2.5938 0.34587 0.58264 0.7376 0.91665 1.2188 0.96875 0.47127 0.0354 0.95477-0.0884 1.4375-0.375 0.78238-0.46444 1.2538-1.183 1.4375-2.125 0.17381-0.95865 0.0254-1.8552-0.46875-2.6875-0.32611-0.5493-0.6969-0.8365-1.125-0.875-0.14187-0.0114-0.2978-0.0112-0.4375 0zm10.625 1.6562c-0.16502 0.007-0.36881 0.0455-0.59375 0.0937-0.6105 0.13617-1.1602 0.38934-1.6875 0.75-1.1504 0.78697-1.9435 1.9929-2.375 3.625-0.35498 1.2983-0.64429 2.7999-0.84375 4.5312-0.1742 1.5968-0.30277 2.5775-0.40625 2.9062-0.10471 0.33551-0.1352 0.56726-0.0937 0.75-0.0409 0.161-0.0842 0.31712-0.125 0.5-0.24404 1.0679-0.47315 1.6413-0.65625 1.75-0.14982 0.0889-0.2663 0.0581-0.375-0.125-0.23717-0.39951-0.45872-1.5074-0.65625-3.2812-0.20688-1.9033-0.45195-3.0818-0.71875-3.5312-0.22729-0.38285-0.94119-0.78794-2.1875-1.2188-0.28504-0.1009-0.50643-0.0889-0.65625 0-0.0832 0.0494-0.30723 0.27293-0.6875 0.65625-0.28347 0.2809-0.49171 1.0188-0.59375 2.25-0.0849 1.1085-0.15055 2.2139-0.21875 3.3125-0.26804 1.9376-0.45684 3.2008-0.5625 3.7812-0.004 0.15723 0.0306 0.27257 0.0937 0.375-0.077 0.14341-0.15554 0.28512-0.25 0.40625-0.23493-0.44513-0.58599-0.87605-1.0625-1.2812-0.79419-0.67531-1.2331-1.0262-1.3125-1.0938-0.5759-0.5935-0.93601-1.0103-1.0625-1.25-0.1265-0.23968-0.12015-0.52477-0.0312-0.8125 0.0889-0.2877 0.41409-0.49088 1-0.625 0.0946-0.0281 0.19565-0.0486 0.28125-0.0937 0.32528-0.17166 0.54098-0.47871 0.6875-0.90625 0.14647-0.42752 0.12724-0.82796-0.0625-1.1875-0.51503-0.97582-1.3529-1.1679-2.5-0.5625-0.65058 0.34337-1.2699 1.0075-1.9062 2-0.63633 0.99251-1.1321 2.1154-1.4688 3.3438-0.76326 3.1168-1.286 5.3525-1.5938 6.7188-0.0334 0.13381-0.0696 0.24329-0.0625 0.34375-0.0617 0.0913-0.11803 0.201-0.1875 0.28125-0.21186-0.45656-0.54484-0.91472-1-1.3438-0.75862-0.71502-1.1741-1.0846-1.25-1.1562-0.5448-0.62217-0.85467-1.0666-0.96875-1.3125-0.114-0.24583-0.13474-0.49844-0.0312-0.78125 0.09-0.29 0.43-0.5 1.02-0.6 0.0959-0.0232 0.19345-0.053 0.28125-0.0937 0.33364-0.1548 0.58185-0.4555 0.75-0.875 0.1686-0.41947 0.17111-0.78748 0-1.1562-0.46446-1.0009-1.2922-1.2334-2.4688-0.6875-0.66729 0.30965-1.345 0.9476-2.0312 1.9062-0.68624 0.95868-1.2259 2.0404-1.625 3.25-0.9212 3.0738-1.5604 5.2762-1.9375 6.625-0.092 0.3023-0.0668 0.5179 0.0625 0.65625-0.12233 0.24696-0.22372 0.47996-0.375 0.75-0.45427 0.80249-0.78308 1.21-0.9375 1.1875-0.15446-0.0225-0.28591-0.19369-0.40625-0.5-0.18411-0.46845-0.2234-1.098-0.125-1.9062 0.24695-2.177 0.42385-3.8345 0.53125-4.9375 0.10292-0.95559 0.072-1.5952-0.0625-1.9375-0.19116-0.48645-0.62072-0.88738-1.3125-1.2188-0.86746-0.40789-1.4276-0.52908-1.6875-0.34375-0.37192 0.27095-0.56425 0.78123-0.59375 1.5 0.007 0.018-0.0478 0.45022-0.125 1.3125-0.7291-0.10869-1.5715 0.0169-2.5625 0.40625-0.55854 0.21949-1.0569 0.51555-1.4688 0.84375-0.92467 0.71693-1.6467 1.5616-2.1562 2.5938-0.26956 0.58433-0.50301 1.394-0.75 2.4062-0.49411 1.4421-0.91698 2.4446-1.2188 3-0.18208 0.38355-0.38271 0.77179-0.59375 1.1875-0.19303 0.40863-0.26125 0.67315-0.21875 0.78125 0.0205 0.0521 0.0425 0.0779 0.0625 0.125-0.0126 0.0254-0.0185 0.0364-0.0312 0.0625-0.45615 0.90444-0.80489 1.4477-1.0625 1.5938-0.32512 0.18866-0.5281 0.13794-0.625-0.15625-0.0666-0.20224-0.0951-0.60604-0.0625-1.1875 0.58464-4.4117 1.1667-8.5134 1.7188-12.344 0.0692-0.53233 0.0597-0.94294-0.0312-1.2188-0.0606-0.18384-0.25844-0.47591-0.59375-0.875-0.2438-0.30691-0.60487-0.59716-1.0938-0.84375-0.4889-0.24652-0.90661-0.38675-1.2188-0.40625-0.33659-0.0317-0.79365 1.7911-1.4062 5.4375-0.15612 0.88712-0.56767 2.4233-1.1875 4.625-0.6075 2.1772-1.0662 3.674-1.375 4.4688-0.70963 1.6198-1.1978 2.7455-1.5 3.375-0.0125 0.0857-0.005 0.17094 0.0312 0.28125 0.0485 0.1471 0.1348 0.30232 0.28125 0.4375 0.15878 0.11071 0.2831 0.1553 0.375 0.125 0.49644-0.16355 1.2592-1.9823 2.2812-5.4375-0.88318 4.0006-1.1186 6.599-0.71875 7.8125 0.0727 0.22064 0.16529 0.39554 0.28125 0.5 0.66497 0.65733 1.4171 0.84722 2.2812 0.5625 0.84577-0.27866 1.7463-0.98952 2.6562-2.125 0.42415-0.50663 0.99115-1.5278 1.7188-3.0312 0.17584-0.39424 0.3539-0.76661 0.53125-1.1562-0.0612 0.82378 0.0297 1.5474 0.28125 2.1875 0.25488 0.64864 0.65474 1.0993 1.25 1.3438 0.59525 0.24448 1.2396 0.2307 1.9062-0.0312 0.66665-0.26195 1.2633-0.70343 1.7812-1.3438 0.51797-0.64031 1.105-1.5692 1.7812-2.8125 0.0373 0.35972 0.11255 0.66725 0.21875 0.9375 0.2124 0.54053 0.5647 0.87134 1.0312 1 0.47748 0.10357 0.92455 0.052 1.375-0.125 0.57654-0.22654 1.0986-0.63092 1.5625-1.25 0.25737-0.35073 0.72772-1.1326 1.375-2.3438 0.65821-1.2362 1.097-2.1557 1.3125-2.7188 0.14605-0.36937 0.26404-0.70499 0.40625-1.0312 0.13512-0.34427 0.1887-0.58783 0.125-0.75-0.0283-0.0719-0.10552-0.1477-0.1875-0.21875 0.15401-0.5147 0.30244-0.96793 0.78125-2.625 0.51018-1.752 0.94178-2.9027 1.3125-3.4375 0.0864 0.60015 0.36988 1.3998 0.84375 2.375 0.54847 1.09 0.88409 1.864 1 2.3438-0.97016 0.3008-1.6351 0.53269-1.9688 0.6875-0.57948 0.2689-1.0916 0.66336-1.5312 1.1875-0.53002 0.65144-0.56367 1.4032-0.15625 2.2812 0.24446 0.52681 0.61328 0.98673 1.1562 1.375 0.8734 0.64044 2.1443 0.5866 3.8125-0.1875 0.73751-0.34223 1.36-0.86393 1.875-1.5938 0.75898-1.0778 1.0745-2.4005 0.9375-3.9375 0.79525-0.53975 1.3196-1.2539 1.5625-2.1562 0.14495-0.51543 0.1983-0.8732 0.125-1.0312-0.0486-0.10469-0.12064-0.16048-0.1875-0.21875 0.14357-0.59744 0.20635-0.80033 0.53125-2.1875 0.41995-1.7758 0.7821-2.9469 1.125-3.5 0.11698 0.59494 0.44564 1.3628 0.96875 2.3125 0.60347 1.0605 0.98471 1.8393 1.125 2.3125-0.95352 0.35001-1.6122 0.60959-1.9375 0.78125-0.56497 0.29818-1.0564 0.70407-1.4688 1.25-0.49606 0.67769-0.51428 1.4565-0.0625 2.3125 0.27106 0.51362 0.68789 0.95249 1.25 1.3125 0.905 0.59495 2.186 0.45212 3.8125-0.40625 0.71906-0.37949 1.3042-0.93231 1.7812-1.6875 0.70285-1.1152 0.96539-2.4408 0.75-3.9688 0.76661-0.5797 1.241-1.3364 1.4375-2.25 0.1185-0.52216 0.1438-0.84591 0.0625-1-0.0765-0.14485-0.17279-0.26289-0.28125-0.3125 0.16088-0.92656 0.35418-1.8686 0.46875-2.6875 0.21359 2.5972 0.3569 4.1413 0.4375 4.6562 0.13829 0.95349 0.38436 1.7591 0.75 2.375 0.17788 0.29964 0.46881 0.51945 0.90625 0.6875 0.55345 0.21176 1.0944 0.17147 1.5938-0.125 0.74908-0.44469 1.5514-1.7601 2.375-3.9375 0.51686-1.3545 0.83264-2.4528 1-3.3438 0.0599 0.17376 0.11794 0.34176 0.28125 0.6875 0.18748 0.41121 0.60242 0.80386 1.2188 1.1562 0.74078 0.43145 1.4838 0.6196 2.2188 0.5625 0.57937-0.0445 1.129-0.23306 1.6562-0.59375 1.7256-1.1804 2.9386-3.4446 3.6562-6.75 0.39708-1.8196 0.47952-2.8832 0.25-3.2188-0.0656-0.0959-0.15763-0.14725-0.28125-0.15625-0.27413-0.0236-0.48192-0.014-0.59375 0.0625-0.0639 0.0437-0.13562 0.24972-0.25 0.5625-0.12529 0.29684-0.26753 0.94556-0.4375 2-0.12454 0.81229-0.36299 1.6234-0.71875 2.4062-0.41381 0.86944-0.85419 1.46-1.3125 1.75-0.65005 0.42122-1.2363 0.25096-1.75-0.5-0.48091-0.70302-0.81784-1.9103-1.0312-3.5938-0.32684-2.6379-0.12596-4.205 0.625-4.7188 0.20772-0.14207 0.44462-0.211 0.71875-0.1875-0.35576 0.33716-0.51155 0.74772-0.46875 1.1875 0.0252 0.31113 0.11729 0.57285 0.28125 0.8125 0.49184 0.71901 1.1081 0.80589 1.875 0.28125 0.527-0.36074 0.8211-0.9625 0.875-1.8438 0.0396-0.73071-0.10807-1.379-0.46875-1.9062-0.36069-0.52725-0.86866-0.88248-1.5312-1.0625-0.1051-0.0337-0.24123-0.0386-0.40625-0.0312zm-57.969 17.5c-0.67539-0.0157-1.4367 0.0867-2.2812 0.28125-2.324 0.52415-4.6028 2.461-6.8438 5.8438-1.3647-0.32529-2.5786-0.36513-3.6562-0.125-1.1013 0.2263-2.106 0.83194-3.0312 1.8125-0.97654 1.014-1.4576 2.002-1.4062 2.9688 0.0183 0.45529 0.0852 0.88781 0.1875 1.2812 0.53575 2.061 2.1513 3.268 4.8125 3.6562-0.0102 1.4228 0.12092 2.7509 0.4375 3.9688 0.83286 3.2038 2.5986 4.9929 5.25 5.3438 1.18 0.15331 2.282 0.0804 3.3125-0.1875 1.9298-0.50166 3.4894-1.7246 4.6875-3.6562 0.76332-1.2185 1.2747-2.4888 1.5625-3.8438 0.2698-1.2703 0.32873-2.1754 0.1875-2.7188-0.14613-0.56206-0.29392-0.8036-0.5-0.75-0.52463 0.13638-0.85932 0.37028-0.96875 0.71875-0.53861 3.1603-1.8078 4.9789-3.8125 5.5-0.31852 0.0828-0.66965 0.131-1.0312 0.125-1.6997 0.002-2.8433-1.1205-3.4375-3.4062-0.10716-0.41217-0.1942-0.86696-0.25-1.3125 2.2352-0.48103 4.2289-1.3301 5.9688-2.5625 1.735-1.2511 3.0238-2.7129 3.8438-4.4062 0.96757-1.9717 1.2293-3.8388 0.78125-5.5625-0.50411-1.9391-1.7863-2.9216-3.8125-2.9688zm-0.6875 1.9688c0.50726 0.0182 0.99944 0.27196 1.4688 0.75 0.0854 0.0978 0.1437 0.23765 0.1875 0.40625 0.18993 0.73072 0.004 1.8332-0.53125 3.3125-0.61386 1.6397-1.4821 3.1091-2.625 4.4062-1.3704 1.5764-2.9368 2.6437-4.6875 3.2188 0.00043-1.4602 0.18835-2.667 0.53125-3.6562 0.20086-0.61226 0.40404-1.2606 0.65625-1.9062 0.88167 0.39088 1.4708 0.71006 1.75 0.9375 0.17984 0.15356 0.38765 0.20985 0.59375 0.15625 0.13115-0.0341 0.23207-0.1097 0.34375-0.21875 0.27397-0.33122 0.26385-0.61979-0.0625-0.875-0.68459-0.40208-1.4065-0.77985-2.1562-1.125 1.4207-3.2296 2.7447-5.0174 4-5.3438 0.1733-0.0451 0.36216-0.0685 0.53125-0.0625zm41.625 1.375c0.0337 1.1423-0.21628 1.8893-0.78125 2.1875-0.11984 0.0633-0.2593 0.0819-0.40625 0.0937-0.41565 0.00048-0.71236-0.16057-0.875-0.46875-0.12649-0.23967-0.0898-0.49672 0.0937-0.8125 0.0999-0.18404 0.74938-0.53159 1.9688-1zm-21.094 2.5312c0.23456 0.001 0.43506 0.17569 0.5625 0.5 0.26194 0.66666 0.22299 1.8136-0.125 3.4688-0.1589 0.70723-0.40478 1.4611-0.71875 2.25-0.43044 1.0219-0.84039 1.6013-1.2188 1.75-0.32432 0.12745-0.563-0.01-0.71875-0.40625-0.23364-0.59456-0.11689-1.8113 0.34375-3.6562 0.60408-2.3797 1.1385-3.6526 1.625-3.8438 0.0901-0.0354 0.17181-0.063 0.25-0.0625zm-31.25 1.4688c0.47055-0.0173 0.9711-0.01 1.5 0.0625-1.2756 2.1718-2.0545 4.4533-2.2812 6.8125-1.9526-0.43249-3.0751-1.2884-3.4062-2.5625-0.1705-0.65575-0.12442-1.2932 0.15625-1.9062 0.51978-1.1552 1.4135-1.8875 2.6875-2.2188 0.41219-0.10714 0.8732-0.17019 1.3438-0.1875zm-61.812 0.0312c-0.23677-0.0197-0.55823-0.0213-0.9375 0.0312-0.29852 0.035-1.1871 0.35773-2.7188 0.9375-0.95484-0.29502-2.0673-0.53806-3.3125-0.71875-2.7013-0.39189-5.338 0.11211-7.9062 1.5-2.1051 1.1617-3.4414 2.368-4 3.6562-0.5669 1.3457-0.88538 2.3003-0.96875 2.875-0.15288 1.0537 0.0092 2.0681 0.5 3 0.43079 0.80584 1.0583 1.261 1.8438 1.375 0.19156 0.0278 0.36964 0.0353 0.53125 0 0.58337-0.11097 0.91662-0.4565 1-1.0312 0.05835-0.40231-0.22448-0.73862-0.8125-1-1.1022-0.49244-1.5529-1.3676-1.375-2.5938 0.0389-0.2682 0.08831-0.53346 0.1875-0.8125 0.43249-1.2283 1.1207-2.2206 2.0312-2.9688 1.0449-0.86556 2.5804-1.5643 4.5938-2.0938 1.3039-0.35852 2.5914-0.4362 3.875-0.25 0.55556 0.0806 1.074 0.21351 1.5938 0.40625-1.5959 1.1573-3.2435 2.7241-5 4.7188-1.3558 1.5247-2.9118 3.4205-4.625 5.6562-1.4497 1.9023-2.4737 3.1787-3.0938 3.8125-1.0069 1.008-2.1124 1.7357-3.3125 2.1875-0.64115 0.23954-1.2448 0.29655-1.7812 0.21875-0.68969-0.10005-1.1203-0.39268-1.3438-0.875-0.13629-0.27407-0.18959-0.52009-0.15625-0.75 0.0806-0.55557 0.64997-1.072 1.7188-1.5625 0.58645-0.26702 0.92559-0.772 1.0312-1.5 0.08338-0.57473-0.05524-1.0963-0.4375-1.5625-0.36033-0.48262-0.8557-0.75485-1.4688-0.84375-0.55558-0.0806-1.096 0.006-1.625 0.28125-1.3101 0.67063-2.0929 1.7678-2.3125 3.2812-0.15565 1.0728 0.09043 2.1696 0.6875 3.3125 0.38166 0.74001 1.0216 1.4055 1.9375 1.9688 0.84483 0.51382 1.7246 0.83807 2.625 0.96875 1.2836 0.1864 2.3505 0.18701 3.2188 0 1.6352-0.3496 3.314-1.3166 5.0312-2.9062 0.10699 1.1501 0.71423 2.2533 1.8125 3.3125 0.60103 0.57623 1.3788 0.91796 2.375 1.0625 1.341 0.19456 2.7665 0.009 4.2188-0.5625 1.4522-0.57175 2.5007-1.4064 3.1875-2.5 0.95867-1.4845 1.5381-2.8485 1.7188-4.0938 0.10837-0.74715 0.05424-1.4418-0.125-2.0938-0.15209-0.56977-0.50288-1.2108-1.0625-1.9375 1.1917-0.39435 2.223-0.98366 3.0625-1.7812 0.6584-0.62823 1.0922-1.6035 1.2812-2.9062 0.12783-0.88125 0.03892-1.6174-0.25-2.1875-0.74143-1.4964-1.7476-2.5792-3-3.25 0.60837-0.28337 1.0198-0.45895 1.25-0.5625 0.58643-0.267 0.90408-0.5201 0.9375-0.75 0.01664-0.11493-0.0212-0.2192-0.125-0.3125-0.09427-0.0919-0.26323-0.13656-0.5-0.15625zm104.72 0.6563c-0.0247 1.1426-0.32678 1.8561-0.90625 2.125-0.12293 0.057-0.25887 0.0898-0.40625 0.0937-0.41513-0.0208-0.69708-0.18391-0.84375-0.5-0.11411-0.24584-0.0745-0.50652 0.125-0.8125 0.10916-0.17869 0.78954-0.50078 2.0312-0.90625zm-60.1 0.69c-0.42183 0.0588-0.90113 0.79933-1.4375 2.2812-0.3182 0.9434-0.65325 1.9124-0.96875 2.875-0.45872 1.1975-1.0862 2.6156-1.875 4.25-0.79146 1.6152-1.3445 2.678-1.7188 3.2188-1.629 2.3377-2.4872 3.5836-2.5312 3.6875-0.0759 0.15715-0.0946 0.29103-0.0937 0.4375-0.19197 0.21739-0.40792 0.41665-0.65625 0.71875-0.51694 0.63882-1.1107 1.2219-1.8125 1.7188-0.79559 0.5424-1.458 0.82425-2 0.84375-0.77374 0.0362-1.216-0.40498-1.2812-1.3125-0.0611-0.84958 0.24214-2.0634 0.90625-3.625 1.0471-2.4431 2.03-3.6848 2.9375-3.75 0.251-0.018 0.49385 0.029 0.71875 0.1875-0.47717 0.11194-0.81537 0.37982-1 0.78125-0.13505 0.28143-0.17705 0.55413-0.15625 0.84375 0.0625 0.86886 0.54193 1.2854 1.4688 1.2188 0.63718-0.0458 1.1968-0.42226 1.6875-1.1562 0.40245-0.61117 0.57705-1.2378 0.53125-1.875-0.0458-0.63718-0.29969-1.1981-0.78125-1.6875-0.14766-0.16405-0.43771-0.32553-0.875-0.46875-0.59592-0.19002-1.2066-0.26455-1.8438-0.21875-1.3902 0.0999-2.6797 0.74533-3.875 1.9375-0.96092 0.94246-1.9864 2.1051-3.0312 3.5-0.95525 1.2914-1.5574 2.0494-1.8125 2.2812-0.34605 0.31601-0.5153 0.60011-0.5 0.8125 0.006 0.0869 0.0537 0.16554 0.0937 0.25-0.23522 0.22221-0.49487 0.44907-0.78125 0.6875-0.71128 0.58687-1.1451 0.85745-1.2812 0.78125-0.13617-0.0763-0.1845-0.29591-0.1875-0.625-0.004-0.5033 0.18145-1.0929 0.5625-1.8125 1.0094-1.9446 1.7551-3.4147 2.25-4.4062 0.43793-0.85555 0.65925-1.4759 0.65625-1.8438-0.004-0.52265-0.28505-1.0681-0.8125-1.625-0.66415-0.69121-1.1284-0.98635-1.4375-0.90625-0.44425 0.11998-0.80903 0.49561-1.0938 1.1562 0.00016 0.0194-0.21323 0.40988-0.59375 1.1875-0.64197-0.36235-1.4666-0.509-2.5312-0.5-0.6001 0.005-1.1543 0.0596-1.6562 0.21875-1.1199 0.33871-2.1236 0.90591-2.9688 1.6875-0.46078 0.44922-0.9697 1.1119-1.5625 1.9688-0.97731 1.1699-1.707 1.9644-2.1875 2.375-0.30723 0.29303-0.65421 0.59356-1 0.90625-0.32642 0.31255-0.46971 0.50887-0.46875 0.625 0.00054 0.0628-0.002 0.0995 0 0.15625-0.23656 0.20888-0.48299 0.43148-0.8125 0.75-0.59245 0.54907-1.2832 1.0463-2.0625 1.4688-0.85774 0.43754-1.5536 0.64285-2.0938 0.59375-0.86876-0.0671-1.2176-0.6297-1.0625-1.6875 2.1237-0.54243 4.0209-1.6372 5.7188-3.25 1.2278-1.1733 1.8865-2.2284 1.9375-3.1562 0.034-0.61852-0.20729-1.2103-0.71875-1.7812-0.45669-0.50974-1.0944-0.7679-1.9062-0.8125-1.2371-0.068-2.6929 0.45123-4.3438 1.5625-1.1668 0.76954-2.3162 1.7525-3.4688 2.9688-1.1332 1.2173-1.8101 1.8883-2.0312 2.0312-0.40146 0.24936-0.61221 0.48681-0.625 0.71875-0.0096 0.17397 0.06176 0.3811 0.1875 0.5625 0.14508 0.18244 0.29479 0.27125 0.46875 0.28125 0.21262 0.0117 0.5948-0.21256 1.125-0.6875-0.32309 0.23428-0.55456 0.47835-0.6875 0.78125-0.04739 0.15245-0.11513 0.48971-0.21875 0.96875-0.10176 0.44033-0.0242 0.97013 0.25 1.625 0.32476 0.79337 0.80049 1.4091 1.4375 1.8125 0.46835 0.29719 1.0184 0.4649 1.6562 0.5 2.0682 0.1137 4.4113-0.93065 7.0312-3.0938 0.42164-0.35045 0.76381-0.65357 1.0625-0.9375-0.25826 0.6339-0.38008 1.2225-0.375 1.8125 0.006 0.69688 0.21909 1.2775 0.6875 1.7188 0.46839 0.44126 1.065 0.66225 1.7812 0.65625 0.71623-0.006 1.4435-0.21236 2.1562-0.625 0.71276-0.41265 1.6112-1.0809 2.6875-2-0.0938 0.34927-0.15925 0.67838-0.15625 0.96875 0.005 0.58073 0.20411 0.99419 0.59375 1.2812 0.40882 0.26753 0.85979 0.41025 1.3438 0.40625 0.61944-0.005 1.2516-0.21286 1.9062-0.625 0.36581-0.23544 1.0873-0.81935 2.125-1.7188 1.0569-0.91893 1.7848-1.5825 2.1875-2.0312 0.15789-0.1721 0.31743-0.31009 0.46875-0.46875-0.0421 0.17183-0.11776 0.43278-0.15625 0.875-0.0453 0.44966 0.11402 0.97876 0.46875 1.5938 0.42237 0.74598 0.96145 1.2727 1.625 1.5938 0.52285 0.25354 1.1128 0.3583 1.75 0.3125 2.0853-0.14988 4.2768-1.4755 6.5625-3.9688 1.26-1.3715 1.8728-2.2508 1.8438-2.6562-0.003-0.0439-0.0146-0.0876-0.0312-0.125 0.28967-0.45138 0.40075-0.63635 0.875-1.4062 1.0657-1.7511 1.7524-2.9607 2.0312-3.625-0.14951 0.47037-0.89212 2.473-2.2188 6-0.93975 2.5154-1.3493 3.8891-1.2188 4.125 0.34537 0.65551 0.74651 0.96765 1.1875 0.90625 0.13422-0.0187 0.26354-0.0894 0.40625-0.1875 0.9111-0.61549 1.4166-0.9537 1.4688-1 0.80505-0.81571 1.7933-2.2954 3-4.4375 1.0194-1.8033 1.7103-2.7278 2.0938-2.7812 0.17255-0.024 0.30635 0.10658 0.34375 0.375 0.0797 0.57513-0.0862 1.5201-0.46875 2.8438-0.29953 1.0776-0.41055 1.8644-0.34375 2.3438 0.0961 0.69025 0.73999 1.26 1.9375 1.7188 0.082 0.0275 0.1541 0.0446 0.25 0.0312 0.44098-0.0614 1.1093-0.45023 1.9688-1.1562 0.79071-0.63782 1.4889-1.3216 2.0938-2.0312 1.6797-1.9734 2.5196-3.0529 2.5312-3.25 0.0111-0.0602 0.0947-0.20522 0.21875-0.4375 0.12399-0.23227 0.17485-0.42829 0.15625-0.5625-0.0508-0.3642-0.27285-0.5221-0.6563-0.4687-0.23011 0.032-0.48013 0.27073-0.75 0.71875-0.39659 0.66114-0.86212 1.2911-1.4062 1.875-0.1869 0.20193-0.46739 0.3269-0.8125 0.375-0.40266 0.0561-0.61355-0.0682-0.65625-0.375-0.0267-0.19173-0.006-0.41955 0.0937-0.6875 1.2628-3.2835 1.9245-5.1532 2-5.5938 0.0643-0.3803 0.1025-0.71239 0.0625-1-0.0588-0.42181-0.25404-0.74976-0.5625-1-0.30849-0.25027-0.65986-0.33725-1.0625-0.28125-1.208 0.16821-3.1822 1.4162-5.9062 3.75 0.28833-1.0174 0.83784-2.6736 1.6562-4.9375 0.56674-1.5448 0.83995-2.5157 0.78125-2.9375-0.0134-0.0959-0.0353-0.16385-0.0625-0.21875-0.86937-1.8921-1.6535-2.7836-2.3438-2.6875zm-48.469 1.9062c0.30343 0.20054 0.55441 0.40436 0.78125 0.59375 0.7651 0.65873 1.0647 1.533 0.90625 2.625-0.03616 0.24907-0.09671 0.46596-0.1875 0.6875-0.75692 1.8463-1.7517 2.7746-3 2.75-0.61864-0.0506-1.2279-0.1177-1.8438-0.1875-0.7858 0.0229-1.2236 0.35571-1.3125 0.96875-0.08619 0.5939 0.11981 0.9222 0.65625 1 0.84262 0.25921 1.284 0.38705 1.2812 0.40625 0.42641 0.29661 0.6298 0.9289 0.625 1.9062 0.0078 0.21631-0.00074 0.44551-0.03125 0.65625-0.13344 0.91958-0.52167 1.8716-1.1562 2.875-0.52464 0.78458-1.0366 1.3556-1.5 1.7188-0.92417 0.70706-1.7408 1.0119-2.4688 0.90625-0.65139-0.0945-1.2516-0.46131-1.7812-1.125-0.2321-0.28796-0.31675-0.66522-0.25-1.125 0.12229-0.84295 0.54423-1.4993 1.2188-1.9688 1.0885-0.76144 2.0146-1.1618 2.7812-1.1875 0.6297-0.026 0.97289-0.25392 1.0312-0.65625 0.05834-0.40231-0.14104-0.6263-0.5625-0.6875-0.13412-0.0192-0.2908-0.0133-0.46875 0-0.37791 0.043-0.93143 0.18342-1.6875 0.40625 0.73067-1.1263 1.7379-2.9407 3-5.4375 0.91848-1.8815 1.7132-3.1664 2.4375-3.8438 0.52121-0.49164 1.0486-0.9209 1.5312-1.2812zm12.312 10.25c0.23192 0.0128 0.3295 0.15948 0.3125 0.46875-0.0383 0.69586-0.36573 1.3638-1 1.9688-1.0636 1.0079-1.7532 1.4858-2.0625 1.4688-0.28995-0.0159-0.42015-0.12372-0.40625-0.375 0.0223-0.40591 0.39297-0.99362 1.0938-1.75 1.0162-1.2043 1.6952-1.8014 2.0625-1.7812zm11.438 0.28125c0.38714-0.003 0.58975 0.22292 0.59375 0.6875 0.006 0.71625-0.45793 1.7977-1.375 3.2188-0.40139 0.60358-0.89333 1.2193-1.4688 1.8438-0.76753 0.8003-1.3435 1.1845-1.75 1.1875-0.34845 0.003-0.52725-0.19912-0.53125-0.625-0.005-0.6388 0.53485-1.7232 1.625-3.2812 1.4154-2.0061 2.3836-3.0272 2.9062-3.0312z" fill="url(#radialGradient3082)"/>
  </g>
  <metadata>
    <rdf:RDF>
      <cc:Work>
        <dc:format>image/svg+xml</dc:format>
        <dc:type rdf:resource="http://purl.org/dc/dcmitype/StillImage"/>
        <cc:license rdf:resource="http://creativecommons.org/licenses/publicdomain/"/>
        <dc:publisher>
          <cc:Agent rdf:about="http://openclipart.org/">
            <dc:title>Openclipart</dc:title>
          </cc:Agent>
        </dc:publisher>
        <dc:title>Volleyball</dc:title>
        <dc:date>2011-08-01T00:55:16</dc:date>
        <dc:description>ball, beach, clip art, clipart, game, playing, sport, sports, summer, volleyball, </dc:description>
        <dc:source>http://openclipart.org/detail/152965/volleyball-by-gnokii</dc:source>
        <dc:creator>
          <cc:Agent>
            <dc:title>gnokii</dc:title>
          </cc:Agent>
        </dc:creator>
        <dc:subject>
          <rdf:Bag>
            <rdf:li>ball</rdf:li>
            <rdf:li>beach</rdf:li>
            <rdf:li>clip art</rdf:li>
            <rdf:li>clipart</rdf:li>
            <rdf:li>game</rdf:li>
            <rdf:li>playing</rdf:li>
            <rdf:li>sport</rdf:li>
            <rdf:li>sports</rdf:li>
            <rdf:li>summer</rdf:li>
            <rdf:li>volleyball</rdf:li>
          </rdf:Bag>
        </dc:subject>
      </cc:Work>
      <cc:License rdf:about="http://creativecommons.org/licenses/publicdomain/">
        <cc:permits rdf:resource="http://creativecommons.org/ns#Reproduction"/>
        <cc:permits rdf:resource="http://creativecommons.org/ns#Distribution"/>
        <cc:permits rdf:resource="http://creativecommons.org/ns#DerivativeWorks"/>
      </cc:License>
    </rdf:RDF>
  </metadata>
</svg>
